<svg width="287" height="220" viewBox="0 0 287 220" fill="none" xmlns="http://www.w3.org/2000/svg">
<path d="M156.27 0.448272C155.959 0.75101 155.863 0.93731 155.863 1.27498C155.863 2.12498 156.342 2.60237 157.216 2.61401C157.994 2.61401 158.497 2.17155 158.497 1.46128C158.497 0.541422 158.018 0.0523834 157.108 0.0523834C156.773 0.0523834 156.581 0.145534 156.27 0.448272Z" fill="#263248"/>
<path d="M134.834 3.83654C132.882 4.24408 131.529 5.48996 130.859 7.49269C130.499 8.54063 130.427 10.5201 130.703 11.5797C131.421 14.3858 133.828 15.981 136.942 15.7132C138.798 15.5502 140.63 15.0029 140.487 14.6536C140.439 14.5488 140.355 14.2228 140.271 13.9433C140.127 13.3611 140.235 13.3728 138.798 13.792C138.211 13.9666 137.601 14.0481 136.762 14.0598C135.685 14.0714 135.493 14.0481 134.834 13.7454C134.008 13.3844 133.493 12.9187 133.122 12.2084C132.835 11.6728 132.535 10.4618 132.667 10.3454C132.703 10.2988 134.583 10.1824 136.822 10.0892L140.894 9.90295V9.01802C140.894 6.28174 139.361 4.20915 137.002 3.78997C136.128 3.62696 135.756 3.6386 134.834 3.83654ZM137.182 5.52489C138.044 5.95571 138.678 6.96872 138.762 8.08652L138.798 8.49405L135.685 8.63378C133.972 8.70364 132.559 8.75022 132.535 8.72693C132.427 8.62213 132.918 7.15502 133.206 6.70091C134.068 5.35023 135.792 4.83791 137.182 5.52489Z" fill="#263248"/>
<path d="M144.965 4.19753C144.965 4.38383 144.858 6.92217 144.726 9.83311C144.594 12.7441 144.486 15.2009 144.486 15.2708C144.486 15.3872 144.774 15.4221 145.552 15.4221H146.606L146.678 13.9899C146.726 13.2098 146.821 11.0208 146.893 9.13449C146.977 7.2482 147.049 5.67629 147.073 5.66465C147.085 5.64136 148.223 5.67629 149.6 5.73451C150.965 5.79273 152.115 5.82766 152.138 5.80437C152.162 5.78108 152.21 5.40848 152.246 4.96602L152.294 4.1626L150.821 4.09274C150.007 4.04616 148.354 3.9763 147.157 3.94137L144.965 3.85986V4.19753Z" fill="#263248"/>
<path d="M155.743 4.59341C155.743 4.66327 155.468 7.24819 155.144 10.3221C154.809 13.3961 154.545 15.9345 154.569 15.9461C154.593 15.9694 155.072 16.0276 155.659 16.0858C156.378 16.1557 156.701 16.1557 156.701 16.0625C156.701 16.0043 156.976 13.4776 157.3 10.4735C157.623 7.45778 157.898 4.94272 157.898 4.86122C157.898 4.73314 157.659 4.67492 156.378 4.52355C155.935 4.47697 155.743 4.50026 155.743 4.59341Z" fill="#263248"/>
<path d="M120.907 5.11732C119.578 5.47827 118.476 6.31663 117.901 7.38785C117.65 7.84196 117.626 7.81867 117.41 6.74745C117.338 6.3632 117.254 6.01389 117.23 5.97896C117.183 5.89745 115.59 6.10704 115.47 6.22348C115.422 6.27005 115.59 7.5858 115.853 9.14606C116.117 10.7063 116.692 14.2926 117.135 17.1104C117.566 19.9282 117.937 22.2453 117.949 22.2453C117.973 22.2802 119.973 21.9542 120.009 21.9076C120.033 21.896 119.829 20.5453 119.578 18.9152C119.314 17.2851 119.099 15.8995 119.099 15.8412C119.099 15.7947 119.302 15.9227 119.542 16.1207C121.254 17.5878 124.404 17.2501 126.068 15.4221C127.002 14.3974 127.481 13.07 127.481 11.4282C127.481 7.81867 125.421 5.1406 122.5 4.98923C121.877 4.9543 121.338 5.00088 120.907 5.11732ZM122.559 6.87553C124.296 7.37621 125.41 9.41387 125.302 11.8823C125.242 13.1515 124.871 14.0248 124.104 14.6536C123.158 15.4453 121.589 15.6433 120.476 15.131C119.781 14.8049 119.027 14.0015 118.811 13.3495C118.524 12.4995 118.224 10.4152 118.296 9.80976C118.512 8.08648 119.913 6.77073 121.625 6.70087C121.793 6.68923 122.212 6.77073 122.559 6.87553Z" fill="#263248"/>
<path d="M166.09 5.87433C163.838 6.18872 162.222 7.57432 161.419 9.89143C161.132 10.7065 161.084 11.0092 161.096 12.2202C161.096 13.3496 161.144 13.7455 161.347 14.2811C162.497 17.3434 166.197 18.7291 169.347 17.2969C170.748 16.6565 171.79 15.4339 172.329 13.7805C173.502 10.1592 171.993 6.9572 168.676 6.07228C167.814 5.8394 166.844 5.76954 166.09 5.87433ZM168.724 7.83049C169.838 8.43596 170.472 9.70513 170.472 11.3469C170.472 12.9072 170.029 14.0948 169.059 15.1078C168.329 15.8647 167.527 16.2373 166.569 16.2373C163.898 16.2373 162.461 13.2332 163.659 10.1243C164.15 8.85514 165.144 7.83049 166.209 7.50446C166.868 7.30652 168.042 7.45789 168.724 7.83049Z" fill="#263248"/>
<path d="M177.981 8.401C177.849 8.6688 174.628 19.2646 174.676 19.3112C174.784 19.4277 176.58 19.8818 176.64 19.8235C176.688 19.7886 177.047 18.6824 177.442 17.3783C177.837 16.0859 178.185 15.003 178.197 14.9797C178.244 14.9332 183.406 16.4352 183.502 16.5167C183.537 16.5516 183.226 17.6694 182.819 18.9852C182.412 20.3126 182.112 21.4304 182.172 21.477C182.304 21.605 184.016 22.0941 184.076 22.0242C184.184 21.9194 187.501 11.1024 187.453 11.0441C187.382 10.9859 185.513 10.4387 185.465 10.4736C185.454 10.4852 185.142 11.4517 184.783 12.6277C184.424 13.8037 184.1 14.7818 184.076 14.8051C184.028 14.8633 178.867 13.3845 178.783 13.2914C178.747 13.2564 179.023 12.2551 179.394 11.0558C179.765 9.85647 180.053 8.86675 180.029 8.8551C179.969 8.80853 178.209 8.31949 178.113 8.31949C178.065 8.31949 178.005 8.35442 177.981 8.401Z" fill="#263248"/>
<path d="M100.753 9.76323C98.3337 10.4735 96.3338 11.0906 96.2979 11.1255C96.262 11.1605 96.3458 11.5331 96.4775 11.9523L96.717 12.7324L97.3158 12.5577C97.6511 12.4529 98.4415 12.2201 99.0642 12.0338C99.6989 11.8475 100.226 11.7077 100.25 11.731C100.274 11.7427 100.932 13.8502 101.735 16.4118C102.525 18.9618 103.196 21.0693 103.208 21.0926C103.279 21.1625 105.207 20.5337 105.207 20.4406C105.207 20.3823 104.561 18.2632 103.758 15.7132C102.968 13.1749 102.333 11.079 102.357 11.0673C102.381 11.044 103.112 10.8345 103.986 10.5783C104.86 10.3338 105.639 10.0893 105.722 10.0427C105.878 9.94953 105.459 8.52899 105.267 8.48241C105.195 8.47077 103.172 9.04132 100.753 9.76323Z" fill="#263248"/>
<path d="M92.6454 12.3482C92.0946 12.5578 91.6156 12.7557 91.5916 12.779C91.5437 12.8372 92.0108 20.2543 92.1425 21.4769C92.2024 21.9543 92.2263 22.3618 92.2143 22.3851C92.2024 22.3968 91.8191 21.9776 91.3641 21.4536C89.7474 19.5557 85.5202 15.1776 85.3765 15.2359C84.3346 15.6317 83.4125 16.0509 83.4365 16.1324C83.4604 16.179 84.6819 17.4482 86.1788 18.9386C92.4778 25.2728 91.915 24.6557 91.915 25.2495C91.915 26.5187 91.2563 28.207 90.3701 29.1851C90.0947 29.4762 89.8792 29.7556 89.8792 29.8022C89.8792 29.9419 90.8971 31.1296 91.0288 31.1296C91.3042 31.1529 92.5137 29.7323 92.9328 28.9056C93.807 27.1591 93.9747 25.2379 93.819 18.5078C93.7591 15.9461 93.6993 13.4194 93.6753 12.8955L93.6514 11.9523L92.6454 12.3482Z" fill="#263248"/>
<path d="M192.148 14.0016C192.148 14.3276 192.124 14.6653 192.088 14.7468C192.028 14.8749 192.219 14.9098 193.01 14.9215C195.393 14.9448 196.998 16.0044 196.974 17.5297C196.962 18.1235 196.734 18.9153 196.578 18.9153C196.519 18.9153 196.004 18.7639 195.417 18.5776C191.932 17.4365 189.549 17.9605 188.423 20.103C188.016 20.8598 187.968 22.0708 188.316 22.8509C188.639 23.5844 189.417 24.3064 190.327 24.7139C190.914 24.9817 191.178 25.0283 192.148 25.0283C193.07 25.0283 193.393 24.9817 193.86 24.7721C194.171 24.6324 194.423 24.5509 194.423 24.5858C194.423 24.6091 194.339 24.9351 194.231 25.2844C194.124 25.6338 194.064 25.9365 194.088 25.9481C194.351 26.1461 195.776 26.6118 195.848 26.5303C195.896 26.4721 196.004 26.1927 196.087 25.9016C196.171 25.6105 196.842 23.957 197.572 22.2338L198.914 19.09V17.8091C198.914 16.3304 198.758 15.9112 197.944 15.1078C196.938 14.1297 195.393 13.5592 193.501 13.4777L192.148 13.4078V14.0016ZM194.722 19.8934C196.135 20.3358 196.087 20.2543 195.632 21.3838C195.153 22.5831 194.806 23.0372 194.088 23.3865C193.321 23.7475 192.854 23.829 192.148 23.6776C190.579 23.3516 189.848 22.1173 190.459 20.8365C191.094 19.5091 192.483 19.1947 194.722 19.8934Z" fill="#263248"/>
<path d="M76.7543 19.2995L72.5391 21.4187L72.8983 22.1173C73.1019 22.5015 73.2815 22.8392 73.3175 22.8741C73.3414 22.8974 74.0839 22.5597 74.97 22.1173C75.8442 21.6632 76.5867 21.3255 76.6226 21.3604C76.6585 21.3954 77.6884 23.3049 78.9219 25.6104C80.1553 27.9159 81.2091 29.8487 81.257 29.8953C81.3408 29.9885 83.1731 29.1734 83.1731 29.0453C83.1731 29.0104 82.1312 27.0309 80.8499 24.6556L78.5386 20.3125L80.1314 19.4974C81.0175 19.0433 81.736 18.6474 81.736 18.6125C81.736 18.5426 81.0175 17.1687 80.9816 17.1687C80.9696 17.1687 79.0656 18.1235 76.7543 19.2995Z" fill="#263248"/>
<path d="M204.638 20.3591C202.638 23.992 202.123 24.8303 201.44 25.5289C200.782 26.2159 199.943 26.5187 199.105 26.3673L198.614 26.2858L198.387 26.8796C198.255 27.2056 198.123 27.555 198.075 27.6714C198.015 27.8228 198.147 27.9159 198.698 28.1139C199.273 28.3234 199.536 28.3584 200.207 28.3002C202.183 28.1255 203.273 27.0193 205.632 22.7926L206.673 20.8947L207.943 21.5584C208.637 21.9194 209.44 22.3385 209.727 22.4899L210.23 22.781L209.607 23.9104C209.272 24.5276 208.194 26.4604 207.212 28.2186C206.242 29.9769 205.44 31.4323 205.44 31.444C205.44 31.5604 207.272 32.4337 207.356 32.3522C207.512 32.1892 212.865 22.455 212.865 22.3385C212.865 22.2803 211.248 21.3838 209.272 20.3591L205.68 18.4728L204.638 20.3591Z" fill="#263248"/>
<path d="M68.2879 23.8755L67.2221 24.5391L67.2939 25.4241C67.3299 25.9131 67.3897 27.5083 67.4257 28.9871C67.4975 31.3973 67.5694 32.6432 67.7969 34.8089L67.8688 35.5076L67.0664 34.2384C65.7132 32.0727 62.6715 27.5316 62.5757 27.5316C62.5158 27.5316 61.0788 28.3932 60.9231 28.5213C60.8752 28.5562 67.1023 37.9062 67.282 38.0808C67.3897 38.1856 67.6772 38.0576 68.4196 37.5802L69.4016 36.9514V36.1713C69.4016 34.7857 69.0423 27.846 68.9346 26.8912C68.8747 26.3789 68.8387 25.948 68.8507 25.9248C68.8747 25.9131 69.2818 26.5419 69.7608 27.322C70.7189 28.8706 74.0599 33.9357 74.1438 33.9357C74.1677 33.9357 74.5629 33.7028 75.018 33.4117L75.8682 32.8761L75.1736 31.8514C74.8024 31.2809 73.3654 29.1151 71.9763 27.0193C70.5991 24.935 69.4375 23.235 69.4016 23.2234C69.3657 23.2234 68.8627 23.5145 68.2879 23.8755Z" fill="#263248"/>
<path d="M214.086 29.7208L210.817 34.4598L211.212 34.7858C212.781 36.1016 215.284 37.5221 216.577 37.8481C217.691 38.1276 219.008 38.0344 219.714 37.6269C221.439 36.6488 222.098 34.5879 221.247 32.9112C220.661 31.7817 219.367 30.6639 217.224 29.4413C217.02 29.3249 217.08 29.1852 218.098 27.6948L219.2 26.0879L218.337 25.529C217.858 25.2263 217.451 24.9701 217.415 24.9701C217.379 24.9818 215.882 27.1126 214.086 29.7208ZM217.032 31.1064C218.613 32.0379 219.679 33.4468 219.523 34.3783C219.487 34.5995 219.307 35.0303 219.128 35.3098C218.265 36.6605 216.517 36.6255 214.445 35.2166C213.978 34.9023 213.571 34.5879 213.523 34.5297C213.439 34.3783 215.966 30.6756 216.158 30.6756C216.23 30.6756 216.625 30.8735 217.032 31.1064Z" fill="#263248"/>
<path d="M54.2412 33.4467L50.5049 36.3227L50.7204 36.6138C50.8402 36.7769 51.0917 37.0679 51.2833 37.2775L51.6186 37.6501L53.0436 36.544C53.834 35.9385 54.5166 35.4844 54.5525 35.531C54.6004 35.5775 55.9776 37.2775 57.6062 39.2919C59.2348 41.3063 60.6239 43.0063 60.6718 43.0645C60.7557 43.1576 61.6418 42.5754 62.3723 41.9583C62.4322 41.9234 61.067 40.1535 59.3546 38.0344C57.6301 35.9152 56.229 34.1686 56.229 34.1337C56.229 34.1104 56.8757 33.5981 57.6541 32.9926L59.0911 31.9098L58.8636 31.6187C58.7438 31.444 58.4924 31.1529 58.3008 30.9433L57.9654 30.5707L54.2412 33.4467Z" fill="#263248"/>
<path d="M225.151 37.1028C223.116 39.4781 221.451 41.4809 221.439 41.5624C221.427 41.6904 222.78 42.9014 222.936 42.9014C222.972 42.9014 223.774 42.0165 224.708 40.922L226.397 38.9425L228.552 40.7007L230.696 42.4589L229.031 44.3918C228.109 45.463 227.379 46.3829 227.391 46.4528C227.415 46.5808 228.912 47.8384 228.959 47.7801C228.983 47.7569 230.672 45.7774 232.72 43.3904C234.779 41.0035 236.456 39.0007 236.456 38.9425C236.456 38.8261 235.043 37.6617 234.911 37.6617C234.839 37.6617 232.48 40.3398 231.965 41.0035C231.869 41.1315 231.378 40.7822 229.75 39.4665C228.6 38.535 227.642 37.7316 227.618 37.6733C227.582 37.5802 228.169 36.8699 230.073 34.6809L230.6 34.0754L229.786 33.4234C229.343 33.0624 228.948 32.7713 228.912 32.7713C228.876 32.7713 227.187 34.7275 225.151 37.1028Z" fill="#263248"/>
<path d="M154.965 37.2077C152.114 37.4871 149.6 38.0344 146.881 38.9659C145.372 39.4782 145.348 39.5947 146.606 40.6309C148.39 42.0981 148.57 42.5289 148.127 44.2172C147.276 47.4775 145.444 48.9562 142.259 48.9562C139.744 48.9562 136.69 47.722 134.691 45.8823L134.068 45.3117L132.834 45.6727C129.709 46.5926 126.679 46.8953 119.338 47.035C111.674 47.1747 108.453 47.5241 105.363 48.5371C104.034 48.9795 102.741 49.5734 101.639 50.2836C100.908 50.7494 100.861 50.8076 100.058 52.3329C98.226 55.8144 96.4536 58.3295 93.855 61.1589L93.1006 61.9856L93.5556 62.1021C96.2381 62.8007 97.9745 62.9753 102.094 62.9753C105.758 62.9637 107.734 62.8356 112.788 62.2884C114.225 62.1253 115.47 61.9973 115.554 61.9973C115.65 61.9973 115.602 61.776 115.375 61.3219C114.668 59.9363 114.62 58.3877 115.219 57.1418C115.674 56.2103 116.991 54.9528 118.081 54.4055C119.865 53.5206 121.374 53.2062 123.506 53.2877C124.751 53.3343 125.206 53.4042 126.032 53.672C127.493 54.1494 128.679 54.9644 129.541 56.0473L129.853 56.4432L131.685 56.3035C141.469 55.5699 150.39 53.3809 158.138 49.8062C162.461 47.8152 166.688 45.0789 169.85 42.2494C170.987 41.2248 172.868 39.257 172.868 39.0823C172.868 38.9542 170.413 38.2789 168.676 37.9412C165.67 37.3474 163.814 37.1844 159.815 37.1378C157.743 37.1145 155.563 37.1495 154.965 37.2077Z" fill="#263248"/>
<path d="M47.4273 38.9659C46.3376 39.5364 44.8766 41.0152 44.3377 42.0864C43.2719 44.2288 43.5952 46.546 45.2598 48.5254C47.7626 51.4946 51.8102 51.5761 54.4568 48.7233C55.0675 48.0713 55.9896 46.6973 55.9896 46.4528C55.9896 46.3364 54.8759 45.5795 54.7082 45.5795C54.6484 45.5795 54.4807 45.824 54.3131 46.1268C53.9538 46.7905 52.9718 47.8384 52.3851 48.211C50.6846 49.2473 48.7566 48.898 47.1399 47.2795C46.0981 46.2083 45.7508 45.4514 45.7508 44.1823C45.7508 43.3206 45.7987 43.111 46.0981 42.5638C46.5292 41.7487 47.571 40.7823 48.4332 40.3748C48.8045 40.2117 49.1278 40.0487 49.1517 40.0254C49.2835 39.9323 48.5051 38.5933 48.3374 38.5933C48.2297 38.5933 47.8225 38.7679 47.4273 38.9659Z" fill="#263248"/>
<path d="M236.205 46.3946C233.869 48.5836 231.953 50.4 231.929 50.4466C231.917 50.4932 232.301 50.9123 232.78 51.3781L233.642 52.2164L237.893 51.2384C240.228 50.6911 242.683 50.0973 243.342 49.8993C244 49.713 244.551 49.5733 244.575 49.585C244.587 49.6082 244.192 49.9808 243.677 50.4117C242.276 51.5877 237.558 55.989 237.546 56.1171C237.534 56.187 237.845 56.5479 238.228 56.9089L238.923 57.5842L243.174 53.6137C245.509 51.4247 247.425 49.5966 247.449 49.55C247.461 49.5151 247.078 49.0959 246.599 48.6302L245.713 47.7685L241.977 48.6069C238.648 49.3404 236.097 49.9925 235.067 50.3534C234.816 50.4466 235.007 50.2254 235.738 49.5733C236.3 49.0726 237.905 47.5939 239.294 46.2898L241.845 43.9261L241.498 43.4953C241.306 43.2624 240.995 42.9247 240.803 42.7501L240.444 42.424L236.205 46.3946Z" fill="#263248"/>
<path d="M37.5476 48.4555L36.9009 49.224L37.4877 49.7247C37.823 50.0041 38.6134 50.6678 39.248 51.1918C39.8827 51.7274 40.4096 52.2048 40.4096 52.2514C40.4216 52.3795 36.9368 56.2918 36.8051 56.2918C36.7452 56.2918 35.9429 55.6514 35.0208 54.8596C34.0867 54.0795 33.2964 53.4274 33.2485 53.4041C33.1527 53.3692 31.7516 54.8829 31.8114 54.9527C32.3503 55.4651 40.733 62.4513 40.7929 62.4397C40.9246 62.3815 42.0982 61.0308 42.0982 60.9376C42.0982 60.8911 41.2719 60.1575 40.2779 59.3075C39.272 58.4575 38.3739 57.7123 38.29 57.6308C38.1463 57.5027 38.6972 56.839 41.7988 53.4041C41.8107 53.3925 42.7328 54.1493 43.8346 55.0925L45.8584 56.8041L46.5529 56.0473C46.9361 55.6397 47.2355 55.2671 47.2116 55.2205C47.1756 55.0925 38.3858 47.6754 38.29 47.687C38.2421 47.687 37.9068 48.0363 37.5476 48.4555Z" fill="#263248"/>
<path d="M249.533 53.9164C249.258 54.7431 248.803 56.1986 248.491 57.165C248.192 58.1198 247.928 58.9116 247.916 58.9232C247.904 58.9465 246.276 59.0397 244.3 59.1561C242.324 59.2609 240.683 59.3773 240.659 59.389C240.576 59.4588 241.989 61.1821 242.132 61.1821C242.444 61.1821 247.078 60.7164 247.342 60.6465C247.569 60.5999 247.605 60.6232 247.545 60.7979C247.246 61.5314 245.797 65.665 245.797 65.7465C245.797 65.9095 247.282 67.7492 247.318 67.6328C247.641 66.5732 249.521 60.9027 249.557 60.8677C249.605 60.8095 255.113 60.4951 256.012 60.4835C256.263 60.4835 256.455 60.4369 256.431 60.367C256.419 60.3088 256.131 59.9129 255.796 59.4938L255.197 58.7253L253.832 58.7951C252.539 58.865 251.006 59.0047 250.156 59.1444L249.784 59.2027L250.659 56.7225L251.521 54.2424L250.922 53.4856C249.952 52.263 250.072 52.228 249.533 53.9164Z" fill="#263248"/>
<path d="M24.5185 56.8507C24.0993 57.2349 23.9676 57.5842 24.0634 58.0849C24.1472 58.5157 24.5065 58.8883 25.0214 59.0863C25.716 59.3308 26.5303 58.8185 26.7099 58.0267C26.9734 56.8972 25.4046 56.0472 24.5185 56.8507Z" fill="#263248"/>
<path d="M28.0872 59.7267C27.7878 60.1343 27.5483 60.5185 27.5483 60.5884C27.5483 60.6466 29.668 62.2185 32.2666 64.0815L36.9848 67.4698L37.6315 66.6315C38.1344 65.9678 38.2422 65.7699 38.1225 65.6534C37.7752 65.339 28.8057 58.9699 28.7219 58.9699C28.674 58.9815 28.3866 59.3192 28.0872 59.7267Z" fill="#263248"/>
<path d="M178.556 60.728C174.424 61.1006 171.215 61.8691 168.712 63.0568C167.335 63.7205 164.808 65.304 163.287 66.4917C161.958 67.5163 158.773 70.6369 157.779 71.8711C155.922 74.1882 154.509 76.6451 154.078 78.3334C153.647 79.9752 153.06 85.471 152.725 91.1066C152.522 94.5532 152.522 111.297 152.737 124.524C152.953 137.915 152.821 144.225 152.138 151.596C151.731 156.044 151.18 159.619 150.354 163.263C149.815 165.627 149.624 166.197 149.384 166.267C149.121 166.349 148.917 166.989 148.917 167.746V168.305H160.581H172.233L171.945 167.175C170.544 161.551 169.55 153.482 169.155 144.319C168.999 140.791 168.999 131.639 169.155 127.61C169.538 117.794 170.353 108.63 171.682 99.4901L172.161 96.1717L172.64 95.7408C173.251 95.1936 174.927 94.3552 176.185 93.971C177.646 93.5285 179.178 93.2607 182.448 92.8532C186.974 92.3059 188.22 92.0614 190.243 91.3511C192.207 90.6525 194.147 89.3135 195.249 87.9046C198.602 83.5847 199.716 74.6307 197.656 68.6109C196.626 65.6184 195.046 63.7671 192.447 62.4979C190.711 61.6362 188.064 60.9725 185.394 60.728C183.885 60.5767 180.148 60.5883 178.556 60.728ZM179.789 71.3821C180.963 71.6732 182.1 72.2903 182.831 73.0355L183.501 73.7108L183.585 74.7122C183.693 75.8999 183.501 77.9608 183.178 79.2882C182.256 82.9909 179.729 85.7738 175.131 88.1258C173.79 88.8128 170.221 90.4313 170.161 90.3847C170.149 90.3614 170.077 89.7443 170.005 89.0107C169.922 88.2772 169.658 86.4375 169.395 84.9354C168.604 80.3012 168.508 78.217 168.987 76.0047C169.263 74.6889 169.478 74.2814 170.173 73.6643C171.658 72.3951 173.754 71.5218 176.137 71.1958C177.083 71.0677 178.903 71.1608 179.789 71.3821Z" fill="#263248"/>
<path d="M80.6584 61.4849C75.9162 62.4746 71.2578 66.9691 66.5995 75.0731C63.9529 79.6724 58.5761 91.0251 56.3008 96.7771C52.9357 105.324 51.1634 113.055 50.5886 121.648C50.409 124.385 50.5048 131.278 50.7682 133.839C51.4388 140.406 52.8399 146.671 55.3428 154.309C55.7739 155.636 57.175 159.63 58.4443 163.182C62.8153 175.419 64.3122 180.764 65.3301 187.575C65.881 191.313 65.9768 192.862 65.9768 197.705C65.9887 202.992 65.845 204.878 65.0666 209.792C64.8271 211.329 64.8032 211.41 64.4799 211.561C63.8931 211.864 62.9829 211.771 60.9711 211.212C59.0311 210.677 57.2947 210.432 57.139 210.665C57.0313 210.84 57.3426 211.957 57.7737 212.994C59.2347 216.44 62.2525 218.524 66.7312 219.176C68.8388 219.491 73.0541 219.27 75.4252 218.722C81.808 217.279 87.5681 212.796 92.6815 205.297C98.2739 197.112 102.848 186.097 107.1 170.634L107.914 167.664L107.303 167.571C106.357 167.408 101.651 167.571 97.6871 167.897C92.6815 168.305 89.6398 168.445 87.6759 168.351L86.0113 168.27L86.0951 168.666C87.0532 173.009 87.4244 177.084 87.3286 182.254C87.1969 189.799 85.9155 195.772 83.3049 201.082C81.8799 203.958 80.5746 205.774 78.5986 207.614C77.6167 208.522 75.7845 209.873 75.533 209.873C75.4851 209.873 75.4492 205.379 75.4372 199.883C75.4372 190.277 75.3414 185.829 74.9701 176.688C74.3714 162.238 73.1978 144.586 71.4255 123.418C70.9465 117.573 70.8028 113.253 70.9584 108.246C71.5931 87.2991 75.3653 75.0149 80.6464 76.7266C84.6461 78.019 87.8435 87.8813 89.8673 105.207C90.8972 114.033 91.3163 120.845 91.0768 125.281C90.8014 130.719 90.0709 134.305 88.7417 136.715L88.2147 137.682H100.908C112.944 137.682 113.602 137.67 113.542 137.472C113.231 136.541 112.165 131.184 110.01 119.797C107.243 105.265 105.507 98.6751 101.495 87.6135C97.9865 77.9375 95.8909 73.2451 93.1845 69.0067C90.4781 64.7684 87.4843 62.1369 84.6102 61.4849C83.6522 61.2636 81.7122 61.2636 80.6584 61.4849Z" fill="#263248"/>
<path d="M130.835 62.6493C129.314 63.0335 127.985 63.9068 127.386 64.8849C127.098 65.3623 127.062 65.5486 127.062 66.4218C127.062 67.2835 127.098 67.4814 127.386 67.9472C127.985 68.9485 129.038 69.6588 130.535 70.1013C131.601 70.4157 133.625 70.3924 134.727 70.0663C136.834 69.4259 138.391 67.7958 138.223 66.3986C138.068 65.1992 137.146 63.8369 136.02 63.1965C135.086 62.6609 134.176 62.463 132.775 62.4746C132.068 62.4746 131.194 62.5561 130.835 62.6493Z" fill="#263248"/>
<path d="M15.3336 69.9615L14.9863 70.5787L15.4294 71.0793C16.1599 71.9177 16.1359 72.7211 15.3575 73.3615C15.0462 73.6177 14.9025 73.6526 14.3875 73.6177C14.0522 73.5828 13.693 73.5245 13.5852 73.478C13.4295 73.4081 13.2978 73.5362 13.0104 74.0252C12.8068 74.3745 12.6392 74.6889 12.6392 74.7238C12.6392 74.8519 13.7888 75.1547 14.3037 75.1547C15.8844 75.143 17.2257 73.6177 17.2376 71.8362C17.2496 70.928 17.082 70.5204 16.4593 69.9266C15.7886 69.2746 15.7168 69.2746 15.3336 69.9615Z" fill="#263248"/>
<path d="M20.2794 70.9862C19.98 71.5218 19.7046 72.0109 19.6807 72.0808C19.6328 72.2554 23.3451 78.5663 24.4348 80.1499C24.9378 80.8718 25.321 81.4889 25.309 81.5122C25.2851 81.5239 24.806 81.2677 24.2552 80.93C22.9738 80.1615 16.9383 76.8663 16.8904 76.9246C16.8785 76.9479 16.6389 77.3321 16.3755 77.7862L15.8965 78.6246L20.95 81.3608C23.7283 82.8745 26.0634 84.1204 26.1593 84.1437C26.2431 84.167 26.5544 83.7595 26.9137 83.1656L27.5125 82.141L25.5605 78.8574C24.4827 77.041 23.1894 74.9335 22.6745 74.165C22.1715 73.3965 21.7763 72.7561 21.8003 72.7328C21.8122 72.7095 22.423 73.0472 23.1295 73.478C24.2911 74.1766 30.0871 77.367 30.1949 77.367C30.3147 77.367 31.2128 75.702 31.129 75.6205C31.0212 75.5273 21.2015 70.1712 20.962 70.078C20.9021 70.0547 20.5908 70.4623 20.2794 70.9862Z" fill="#263248"/>
<path d="M261.125 71.0794C258.275 72.6746 256.562 73.2684 254.527 73.3732L253.257 73.443L252.994 73.0122C252.838 72.7794 252.682 72.6047 252.647 72.628C252.599 72.6513 251.557 73.2567 250.323 73.9787L248.084 75.2828L248.443 75.8882C248.647 76.2259 248.862 76.5403 248.91 76.5985C248.958 76.6451 249.713 76.3191 250.575 75.8649C251.437 75.4108 252.18 75.0382 252.227 75.0382C252.311 75.0382 254.096 77.9958 255.892 81.1046L256.347 81.8848L254.73 82.8396L253.126 83.7944L253.485 84.3882C253.676 84.7259 253.892 85.0402 253.94 85.0985C254.024 85.18 256.311 84.0622 258.215 82.9909L258.73 82.6998L258.419 82.1992L258.119 81.6985L259.233 81.0581C259.844 80.7088 261.832 79.6026 263.64 78.5896C265.448 77.5766 266.945 76.7382 266.969 76.7266C267.017 76.68 263.293 70.3807 263.113 70.1828C263.017 70.078 262.538 70.2876 261.125 71.0794ZM263.556 74.0718C264.059 74.9451 264.442 75.7019 264.394 75.7485C264.071 76.0396 257.125 79.8122 257.041 79.7307C256.898 79.591 254.395 75.3643 254.443 75.341C254.467 75.3293 255.018 75.2478 255.664 75.178C257.52 74.9567 259.305 74.293 261.664 72.954C262.131 72.6978 262.526 72.4766 262.562 72.4883C262.598 72.4883 263.041 73.1985 263.556 74.0718Z" fill="#263248"/>
<path d="M141.432 73.1403C140.906 73.1636 137.888 73.3149 134.726 73.4896C130.212 73.7341 127.865 73.804 123.745 73.804C119.147 73.8156 118.512 73.8389 118.56 73.9903C118.799 74.7587 119.518 77.9026 119.805 79.5211C121.111 86.682 121.625 94.0408 121.625 105.661C121.625 114.825 121.47 119.215 120.476 138.671C119.65 154.938 119.53 158.617 119.338 173.428C119.015 199.266 118.919 204.366 118.62 210.909C118.476 213.96 118.44 214.1 117.111 215.835C116.261 216.941 115.758 217.965 115.746 218.571V218.955H127.421H139.085L139.169 218.536C139.217 218.303 139.217 217.837 139.181 217.488C139.121 216.894 138.978 216.533 137.792 213.995C137.014 212.318 136.774 211.166 136.319 206.904C136.115 205.006 136.115 193.944 136.319 190.894C136.403 189.648 136.678 185.503 136.942 181.695C137.205 177.888 137.469 173.661 137.529 172.322C137.9 165.103 138.139 153.063 138.139 141.815C138.151 127.342 138.403 112.03 138.738 104.788C139.373 91.3628 140.642 81.7916 142.69 74.8985C142.953 74.0135 143.169 73.2451 143.169 73.1752C143.169 73.117 142.989 73.0704 142.786 73.082C142.57 73.0937 141.959 73.117 141.432 73.1403Z" fill="#263248"/>
<path d="M264.897 82.6766C263.017 83.1191 261.209 84.4348 260.466 85.9019C259.64 87.5437 259.652 89.104 260.526 90.8273C261.891 93.5286 264.754 94.6348 267.819 93.6218C270.298 92.8067 271.951 91.0718 272.286 88.941C272.609 86.9149 271.436 84.4348 269.627 83.3054C268.37 82.5252 266.574 82.2807 264.897 82.6766ZM268.741 84.8773C269.771 85.3663 270.442 86.3444 270.55 87.4855C270.633 88.4519 270.262 89.3252 269.4 90.1636C267.304 92.2012 263.987 92.4923 262.43 90.7807C261.221 89.43 261.412 87.567 262.909 86.1814C264.586 84.6211 267.053 84.0739 268.741 84.8773Z" fill="#263248"/>
<path d="M13.0823 84.3649C12.8308 84.9471 12.6512 85.506 12.6871 85.5875C12.8188 85.9252 17.0461 91.5259 18.1717 92.8649C18.8184 93.6334 19.3214 94.2505 19.2974 94.2505C19.2735 94.2505 18.7346 94.006 18.0879 93.7149C16.4114 92.958 10.4717 90.5012 10.4118 90.5478C10.316 90.6409 9.63341 92.2944 9.66934 92.3409C9.74119 92.3991 20.447 96.8121 20.5309 96.8121C20.5668 96.8121 20.8063 96.3115 21.0698 95.706L21.5248 94.6115L20.938 93.8197C18.4592 90.5129 16.4353 87.8814 15.7647 87.0896C15.3336 86.5773 14.9025 86.0649 14.8067 85.9601C14.7109 85.8321 15.2019 86.0067 16.0282 86.391C17.8125 87.206 23.6684 89.6279 23.7163 89.5697C23.836 89.4533 24.5066 87.8115 24.4468 87.7649C24.3749 87.6834 13.7289 83.3054 13.6212 83.3054C13.5733 83.3054 13.3338 83.7828 13.0823 84.3649Z" fill="#263248"/>
<path d="M8.2922 95.8456C8.1964 96.0087 7.60962 97.9415 7.60962 98.1045C7.60962 98.186 8.38801 99.4669 9.34602 100.957C10.304 102.436 11.0824 103.763 11.0824 103.903C11.0824 104.055 11.0106 104.148 10.8789 104.148C10.7591 104.136 9.64541 103.833 8.38801 103.449L6.11271 102.774L5.78938 103.717C5.62173 104.241 5.51395 104.707 5.54988 104.753C5.62173 104.811 15.7168 107.862 16.4952 108.048C16.8066 108.13 16.8186 108.107 17.1179 107.175C17.2856 106.663 17.4293 106.22 17.4293 106.197C17.4293 106.185 16.3276 105.836 14.9744 105.428C13.1302 104.87 12.5195 104.648 12.5195 104.509C12.5195 104.124 13.1422 103.03 13.6332 102.541C14.2918 101.889 15.1181 101.598 16.9503 101.4C19.1897 101.167 19.022 101.248 19.3094 100.27C19.4531 99.8045 19.6088 99.3271 19.6567 99.2107C19.7285 99.0244 19.7046 99.0011 19.4531 99.0593C19.2974 99.0943 18.3394 99.2107 17.3335 99.3155C15.2618 99.5251 14.2319 99.7929 13.4056 100.34C12.8907 100.666 12.1961 101.411 11.9925 101.842C11.9446 101.935 11.8967 101.947 11.8608 101.877C10.9148 100.142 8.34011 95.7758 8.2922 95.8456Z" fill="#263248"/>
<path d="M269.867 96.0669C267.999 96.5443 266.322 97.7669 265.628 99.1641C264.717 100.992 265.029 103.391 266.454 105.557C266.741 105.987 267.017 106.36 267.077 106.395C267.136 106.43 267.484 106.278 267.867 106.046C268.538 105.65 268.55 105.626 268.37 105.382C267.065 103.659 266.693 102.145 267.232 100.724C267.867 99.0943 269.723 97.9765 271.831 97.9765C273.1 97.9765 273.735 98.2326 274.609 99.071C275.531 99.9675 275.866 100.748 275.95 102.191L275.998 103.216H276.681C277.076 103.216 277.459 103.146 277.591 103.053C277.806 102.902 277.818 102.832 277.675 101.772C277.303 98.8614 275.567 96.6607 273.16 96.0552C272.286 95.834 270.741 95.8456 269.867 96.0669Z" fill="#263248"/>
<path d="M267.771 108.363C267.448 108.491 267.161 108.607 267.137 108.619C267.125 108.642 267.221 108.956 267.352 109.317C267.652 110.086 268.406 110.878 269.22 111.25C269.915 111.588 271.484 111.681 272.873 111.495C273.424 111.413 274.849 111.146 276.022 110.901C277.208 110.645 278.19 110.447 278.202 110.47C278.214 110.482 278.405 111.332 278.633 112.356C279.016 114.022 279.04 114.231 278.86 114.301C278.753 114.348 276.537 114.837 273.939 115.395C271.34 115.954 269.196 116.42 269.173 116.432C269.161 116.443 269.244 116.898 269.364 117.433C269.52 118.108 269.64 118.411 269.759 118.4C269.855 118.388 272.442 117.852 275.531 117.189C280.058 116.222 281.124 115.954 281.124 115.803C281.124 115.698 280.741 113.928 280.274 111.879L279.411 108.141L278.98 108.235C272.717 109.585 271.328 109.795 270.394 109.504C269.783 109.317 269.196 108.875 268.969 108.444C268.753 108.06 268.598 108.048 267.771 108.363Z" fill="#263248"/>
<path d="M10.5436 110.424C9.45382 110.61 8.50778 111.344 7.84914 112.543C7.44198 113.288 6.951 114.988 6.81927 116.129C6.7594 116.711 6.69952 116.839 6.54384 116.781C6.13669 116.665 2.87942 116.048 2.83152 116.083C2.80757 116.106 2.6998 116.572 2.58004 117.107L2.37646 118.085L8.07667 119.215C11.2142 119.832 13.8368 120.333 13.9206 120.333C13.9924 120.333 14.2439 119.576 14.4954 118.551C15.4774 114.674 15.0942 112.065 13.3697 110.994C12.5674 110.505 11.4537 110.284 10.5436 110.424ZM12.28 112.787C13.0703 113.172 13.5014 114.057 13.5014 115.267C13.5014 116.071 13.226 117.526 13.0105 117.864C12.9386 117.992 12.4357 117.934 10.6034 117.573L8.3042 117.13L8.36408 116.374C8.4958 114.825 9.19037 113.393 10.1125 112.799C10.6633 112.438 11.5615 112.438 12.28 112.787Z" fill="#263248"/>
<path d="M178.089 119.25C180.256 122.428 182.017 125.875 183.226 129.298C186.819 139.498 186.436 150.944 182.041 165.045C179.873 171.996 177.526 177.678 171.407 190.777C169.574 194.713 167.575 199.079 166.964 200.465L165.862 202.992L153.492 203.003H141.133L141.361 203.434C142.403 205.402 144.917 207.87 150.594 212.458C152.929 214.356 155.432 216.44 156.138 217.092L157.432 218.28L157.935 218.094C158.689 217.814 160.03 216.778 160.737 215.928C161.072 215.509 161.695 214.635 162.114 213.972C164.066 210.874 165.215 209.431 166.221 208.825L166.617 208.592L167.611 208.825C169.718 209.303 171.443 209.454 174.844 209.454C178.975 209.454 180.879 209.279 190.83 207.963C195.501 207.346 197.357 207.183 200.351 207.113C203.476 207.044 205.5 207.207 207.536 207.719C209.284 208.15 210.123 208.581 211.188 209.629C212.194 210.607 212.53 211.166 213.775 213.913C214.733 216.033 215.44 217.15 216.481 218.175C217.451 219.142 217.415 219.142 219.284 218.268C221.894 217.057 223.152 216.068 227.355 211.957C230.792 208.592 231.642 207.847 233.139 206.857C234.037 206.264 236.085 205.216 236.324 205.216C236.396 205.216 236.456 205.169 236.456 205.111C236.456 204.971 234.839 204.366 233.822 204.121C231.486 203.562 227.714 203.364 223.223 203.574C215.715 203.911 213.512 203.958 211.631 203.842C210.59 203.783 209.715 203.702 209.691 203.679C209.632 203.62 208.721 194.643 208.314 190.079C207.787 184.14 207.225 177.305 206.219 164.229C204.877 146.892 204.65 144.132 204.063 138.963C203.357 132.617 203.285 131.813 203.285 129.193C203.285 124.501 204.159 121.741 206.386 119.424C206.59 119.215 206.758 119.017 206.758 118.982C206.758 118.959 200.255 118.935 192.315 118.935H177.873L178.089 119.25ZM187.944 187.342C188.184 193.071 188.531 197.915 188.974 201.466C189.082 202.258 189.13 202.945 189.094 202.992C188.998 203.155 187.645 203.481 186.316 203.644C184.627 203.865 181.047 203.865 179.562 203.644C178.209 203.446 177.227 203.12 177.275 202.875C177.382 202.468 180.029 195.33 180.616 193.863C181.957 190.568 183.49 187.901 185.106 186.038C186.028 184.955 187.585 183.605 187.717 183.756C187.765 183.803 187.861 185.421 187.944 187.342Z" fill="#263248"/>
<path d="M284.464 120.554C284.177 120.833 284.117 120.996 284.117 121.439C284.117 121.904 284.177 122.044 284.536 122.394C284.931 122.778 285.003 122.801 285.518 122.743C286.548 122.638 287.051 121.695 286.572 120.798C286.333 120.356 286.057 120.216 285.375 120.216C284.92 120.216 284.752 120.274 284.464 120.554Z" fill="#263248"/>
<path d="M275.89 121.718C272.837 122.149 270.322 122.533 270.286 122.568C270.25 122.603 270.286 123.069 270.37 123.604C270.513 124.466 270.561 124.582 270.765 124.559C271.651 124.466 282.153 122.987 282.213 122.952C282.249 122.917 282.237 122.626 282.189 122.289C282.129 121.951 282.046 121.497 282.01 121.287C281.962 120.996 281.89 120.915 281.686 120.926C281.543 120.938 278.932 121.287 275.89 121.718Z" fill="#263248"/>
<path d="M1.7894 122.719C1.08286 124.222 0.95113 126.515 1.50199 127.959C2.1726 129.694 3.60963 131.01 5.39394 131.499C8.54342 132.372 11.5372 131.313 12.7467 128.914C13.4173 127.598 13.6568 125.607 13.3215 124.058L13.1778 123.418L12.3515 123.441C11.8965 123.465 11.5133 123.488 11.4893 123.5C11.4774 123.523 11.5372 123.872 11.645 124.291C11.9803 125.712 11.633 127.377 10.7828 128.343C10.5193 128.634 10.0284 128.972 9.54934 129.205C8.7949 129.566 8.68713 129.589 7.42973 129.589C6.20825 129.589 6.05258 129.566 5.33406 129.228C4.26827 128.739 3.72938 128.25 3.27432 127.354C2.95099 126.702 2.89112 126.48 2.90309 125.712C2.90309 124.792 3.16655 123.674 3.51383 123.104C3.62161 122.929 3.68148 122.766 3.64556 122.743C3.62161 122.731 3.26235 122.568 2.84322 122.393L2.08878 122.091L1.7894 122.719Z" fill="#263248"/>
<path d="M269.544 127.307C268.346 127.412 267.34 127.528 267.292 127.575C267.244 127.61 267.244 127.983 267.292 128.39L267.376 129.124L269.256 129.089L271.124 129.042L271.388 132.989C271.52 135.155 271.627 136.937 271.615 136.948C271.603 136.96 270.921 137.03 270.094 137.1C269.28 137.169 268.454 137.251 268.25 137.274L267.891 137.332L267.927 138.159L267.975 138.974L269.424 138.904C270.226 138.869 271.436 138.811 272.118 138.776L273.34 138.706V138.148V137.589L273.855 137.53C274.13 137.495 276.381 137.344 278.848 137.204C281.315 137.065 283.387 136.913 283.435 136.867C283.519 136.797 283.088 129.298 283.004 129.228C282.992 129.217 282.417 129.252 281.722 129.31C277.83 129.601 275.292 129.31 273.316 128.343C272.645 128.029 272.621 127.994 272.621 127.552C272.621 127.004 272.873 127.016 269.544 127.307ZM275.795 131.103C276.609 131.254 277.387 131.289 279.16 131.254L281.471 131.219L281.531 131.627C281.567 131.848 281.627 132.698 281.675 133.513L281.746 135.004H281.411C281.219 135.004 279.327 135.109 277.196 135.248C275.064 135.376 273.292 135.458 273.256 135.423C273.196 135.376 272.885 131.394 272.861 130.498C272.861 130.241 272.861 130.241 273.807 130.579C274.322 130.765 275.22 130.998 275.795 131.103Z" fill="#263248"/>
<path d="M5.03472 134.771C3.51386 134.98 1.99301 135.737 1.26252 136.634C1.05894 136.878 0.747588 137.391 0.56796 137.763C0.280555 138.369 0.244629 138.578 0.244629 139.661C0.244629 140.744 0.280555 140.965 0.56796 141.547C0.975118 142.397 1.39425 142.945 1.92116 143.294C2.14869 143.434 2.34029 143.597 2.34029 143.643C2.34029 143.702 1.92116 143.737 1.39425 143.737H0.460183L0.376356 144.447C0.340431 144.843 0.304505 145.262 0.304505 145.367C0.304505 145.553 0.831415 145.576 7.58544 145.646C11.5852 145.681 15.3574 145.751 15.9681 145.797L17.0698 145.867V144.819V143.771L15.1897 143.702C14.1479 143.655 12.7108 143.62 11.9923 143.62H10.687L11.2139 143.166C11.5133 142.921 11.9085 142.409 12.1001 142.037C12.4354 141.384 12.4594 141.268 12.4594 139.952C12.4594 138.602 12.4474 138.52 12.0642 137.763C11.3576 136.378 10.0284 135.388 8.32791 134.957C7.42976 134.736 5.90891 134.654 5.03472 134.771ZM8.20815 137.111C9.77691 137.554 10.7229 138.625 10.8188 140.08C10.9146 141.478 10.232 142.619 8.96259 143.224C8.31593 143.539 8.2321 143.55 6.56755 143.527C5.1904 143.504 4.72336 143.457 4.2204 143.271C3.38214 142.968 2.71152 142.397 2.28042 141.629C1.99301 141.105 1.93314 140.872 1.93314 140.185C1.93314 139.51 1.99301 139.265 2.28042 138.753C3.22646 137.065 5.68138 136.389 8.20815 137.111Z" fill="#263248"/>
<path d="M271.867 141.431C271.771 142.595 271.723 142.537 273.627 143.352C276.094 144.4 276.813 145.192 276.813 146.857V147.497L274.873 147.416C273.795 147.369 272.621 147.311 272.25 147.276L271.579 147.206L271.496 148.161C271.448 148.697 271.448 149.151 271.484 149.197C271.52 149.232 272.693 149.326 274.094 149.395C275.495 149.477 276.657 149.547 276.669 149.547C276.693 149.558 276.681 149.838 276.633 150.164C276.405 151.759 275.531 152.574 273.46 153.156C272.969 153.296 272.262 153.517 271.891 153.645L271.22 153.878L271.136 154.658C271.1 155.089 271.064 155.578 271.064 155.753V156.067L271.579 155.858C271.855 155.741 272.753 155.45 273.567 155.217C276.238 154.437 277.028 153.867 277.651 152.271L277.854 151.736L280.357 154.088L282.86 156.428L282.944 155.997C282.992 155.753 283.028 155.206 283.028 154.786L283.04 154.03L280.585 152.015C279.064 150.769 278.13 149.919 278.13 149.791C278.13 149.605 278.226 149.582 279.064 149.64C281.04 149.756 283.219 149.861 283.243 149.849C283.267 149.838 283.315 149.384 283.351 148.836L283.435 147.847L281.531 147.765C278.765 147.649 278.25 147.591 278.25 147.358C278.25 147.241 279.291 146.484 280.92 145.413L283.579 143.655L283.686 142.537C283.746 141.908 283.758 141.373 283.722 141.338C283.686 141.303 282.429 142.211 280.92 143.364L278.19 145.46L278.058 144.913C277.675 143.317 276.848 142.56 274.394 141.536C273.639 141.221 272.813 140.86 272.537 140.721C272.262 140.593 272.01 140.476 271.987 140.476C271.963 140.476 271.903 140.907 271.867 141.431Z" fill="#263248"/>
<path d="M4.75916 149.675C2.98683 150.129 1.80128 151.002 1.16659 152.33C0.879187 152.912 0.843262 153.133 0.843262 154.216C0.843262 155.636 1.09474 156.463 1.83721 157.418C3.13053 159.083 5.87286 159.91 8.44753 159.409C12.1239 158.687 13.7286 156.021 12.8903 152.038C12.6389 150.874 12.076 149.523 11.8724 149.593C11.8006 149.617 11.4533 149.733 11.118 149.838C10.7707 149.954 10.4833 150.059 10.4833 150.082C10.4833 150.094 10.615 150.408 10.7827 150.758C11.1899 151.608 11.4892 153.168 11.4054 154.041C11.2857 155.567 10.3516 156.754 8.90259 157.232C7.88469 157.569 7.75297 157.558 7.68111 157.092C7.64519 156.894 7.47754 155.299 7.30988 153.575C7.14223 151.841 6.97458 150.21 6.93865 149.931L6.87877 149.442L6.25606 149.454C5.90878 149.454 5.23817 149.558 4.75916 149.675ZM5.57348 151.701C5.57348 151.934 6.04051 156.51 6.11236 157.092L6.18421 157.593H5.78903C5.14237 157.593 3.9688 157.15 3.42991 156.696C2.17251 155.648 1.98091 153.808 3.02275 152.691C3.48979 152.19 3.90892 151.934 4.67533 151.701C5.31002 151.503 5.57348 151.503 5.57348 151.701Z" fill="#263248"/>
<path d="M273.447 158.454C271.627 158.943 270.238 160.375 269.687 162.308C269.46 163.135 269.328 165.58 269.472 166.325L269.579 166.849L270.334 166.826C270.753 166.814 271.112 166.791 271.136 166.768C271.148 166.745 271.124 166.36 271.052 165.929C270.921 165.01 271.076 163.543 271.388 162.693C271.711 161.819 272.358 161.074 273.136 160.69C273.699 160.41 274.022 160.34 274.836 160.294C275.399 160.259 275.854 160.271 275.854 160.317C275.854 160.364 275.555 162.157 275.184 164.299C274.777 166.663 274.561 168.258 274.621 168.316C274.681 168.375 275.172 168.491 275.711 168.561C277.663 168.84 279.639 168.293 280.632 167.187C281.543 166.174 281.902 165.045 281.818 163.414C281.782 162.553 281.71 162.273 281.375 161.61C280.345 159.584 277.842 158.28 275.016 158.303C274.453 158.303 273.747 158.384 273.447 158.454ZM278.19 160.911C279.507 161.528 280.333 162.658 280.321 163.88C280.309 164.742 279.998 165.429 279.375 165.953C278.752 166.488 278.178 166.675 277.124 166.675C276.357 166.675 276.333 166.663 276.393 166.407C276.429 166.267 276.645 165.021 276.872 163.647C277.339 160.853 277.387 160.62 277.483 160.62C277.519 160.62 277.83 160.748 278.19 160.911Z" fill="#263248"/>
<path d="M10.4477 162.029C9.77712 162.18 9.36996 162.425 8.95083 162.879C8.55564 163.321 8.20836 164.241 8.19639 164.917V165.336L7.99281 165.045C7.88503 164.882 7.57368 164.544 7.31022 164.276C6.08875 163.112 4.17271 163.38 3.3584 164.823C3.05902 165.371 3.01112 165.592 2.96321 166.675C2.92729 167.664 2.97519 168.177 3.22667 169.376C3.56198 170.948 4.08889 172.729 4.23259 172.729C4.49604 172.729 15.5372 170.54 15.5971 170.471C15.7288 170.354 15.1779 167.14 14.8426 165.999C14.0882 163.484 12.9625 162.157 11.4417 161.982C11.1423 161.947 10.6992 161.959 10.4477 162.029ZM12.1722 164.393C12.4236 164.556 12.747 164.963 12.9745 165.382C13.3577 166.069 13.8247 167.781 13.8367 168.491V168.852L12.1362 169.166C11.1902 169.341 10.304 169.504 10.1723 169.539C9.9328 169.597 9.89687 169.516 9.64539 168.223C9.20231 165.964 9.44181 164.765 10.3998 164.299C10.9746 164.032 11.6692 164.067 12.1722 164.393ZM6.86714 165.813C7.52578 166.232 8.30417 168.095 8.36404 169.388L8.38799 169.865L6.77134 170.18C5.88517 170.354 5.11876 170.471 5.08283 170.447C4.89123 170.343 4.55592 168.503 4.55592 167.583C4.55592 166.745 4.60382 166.523 4.8074 166.244C5.33431 165.545 6.17258 165.371 6.86714 165.813Z" fill="#263248"/>
<path d="M268.202 170.948C268.131 171.192 267.999 171.647 267.903 171.949C267.771 172.368 267.771 172.52 267.867 172.555C267.951 172.59 269.089 172.892 270.394 173.253C271.711 173.603 272.801 173.917 272.837 173.952C272.897 174.01 271.556 178.807 271.412 179.029C271.34 179.145 270.717 179.017 268.801 178.493C267.412 178.12 266.25 177.841 266.227 177.864C266.155 177.957 265.676 179.762 265.724 179.797C265.783 179.855 276.896 182.859 277.028 182.859C277.208 182.859 277.687 180.973 277.543 180.88C277.471 180.845 276.453 180.554 275.292 180.251C274.118 179.937 273.148 179.669 273.124 179.657C273.1 179.634 274.525 174.464 274.585 174.394C274.597 174.383 275.627 174.651 276.873 175C278.453 175.431 279.172 175.57 279.22 175.477C279.351 175.256 279.735 173.673 279.687 173.614C279.651 173.591 277.172 172.904 274.178 172.101C271.184 171.286 268.634 170.599 268.526 170.564C268.37 170.517 268.298 170.61 268.202 170.948Z" fill="#263248"/>
<path d="M10.9027 176.013C7.88491 176.84 5.39407 177.527 5.37012 177.55C5.29827 177.62 5.909 179.541 6.0048 179.529C6.39999 179.46 17.1537 176.525 17.2256 176.455C17.2855 176.409 17.2016 175.943 17.0579 175.419C16.8663 174.732 16.7466 174.476 16.6029 174.488C16.4951 174.499 13.9324 175.175 10.9027 176.013Z" fill="#263248"/>
<path d="M1.83731 178.272C0.663738 178.749 0.891267 180.484 2.16064 180.717C2.93903 180.857 3.7773 180.216 3.7773 179.483C3.7773 179.029 3.40606 178.458 2.99891 178.272C2.5199 178.051 2.40015 178.051 1.83731 178.272Z" fill="#263248"/>
<path d="M16.9144 180.205L16.2199 180.671L16.5192 181.032C18.1838 183.046 18.9023 185.747 18.2916 187.715C17.8365 189.159 16.7348 190.37 15.166 191.162C11.1783 193.176 7.43004 192.256 5.75351 188.856C5.23857 187.82 4.97512 186.888 4.89129 185.736C4.80747 184.723 4.85537 184.746 3.60994 184.909L3.05908 184.99V185.619C3.05908 186.877 3.69377 189.031 4.42426 190.23C5.86129 192.629 7.87312 193.956 10.5316 194.282C12.9267 194.573 16.172 193.572 18.064 191.93C18.9502 191.185 19.7765 189.951 20.1477 188.868C20.9261 186.539 20.3393 183.488 18.6269 180.962C17.7527 179.658 17.7407 179.646 16.9144 180.205Z" fill="#263248"/>
<path d="M263.843 184.688C262.742 186.993 262.298 188.46 262.287 189.962C262.275 191.313 262.538 192.035 263.328 192.815C264.849 194.329 267.125 194.305 268.669 192.757C269.34 192.081 270.298 190.335 270.657 189.112C270.777 188.681 270.921 188.332 270.969 188.332C271.052 188.332 273.591 189.287 274.381 189.613C274.621 189.706 274.669 189.648 275.016 188.786C275.244 188.251 275.363 187.808 275.304 187.762C275.244 187.703 272.825 186.76 269.927 185.654C267.029 184.548 264.598 183.628 264.526 183.605C264.454 183.57 264.155 184.059 263.843 184.688ZM268.406 187.319C269.076 187.575 269.388 187.75 269.388 187.878C269.388 187.983 269.292 188.344 269.16 188.693C268.274 191.22 266.813 192.303 265.256 191.604C263.688 190.894 263.46 189.24 264.598 186.842L264.981 186.027L266.19 186.492C266.861 186.749 267.855 187.121 268.406 187.319Z" fill="#263248"/>
</svg>
