<svg width="222" height="182" viewBox="0 0 222 182" fill="none" xmlns="http://www.w3.org/2000/svg">
<path d="M120.895 0.328834C120.654 0.580116 120.58 0.734751 120.58 1.01503C120.58 1.72055 120.951 2.1168 121.628 2.12646C122.231 2.12646 122.621 1.75921 122.621 1.16966C122.621 0.406152 122.25 0.000234842 121.545 0.000234842C121.285 0.000234842 121.136 0.0775523 120.895 0.328834Z" fill="white"/>
<path d="M104.286 3.14125C102.773 3.47952 101.725 4.51364 101.205 6.17598C100.927 7.0458 100.871 8.6888 101.085 9.56829C101.641 11.8975 103.506 13.2216 105.919 12.9993C107.357 12.864 108.777 12.4097 108.665 12.1198C108.628 12.0328 108.563 11.7622 108.498 11.5302C108.387 11.047 108.471 11.0567 107.357 11.4046C106.902 11.5496 106.429 11.6172 105.78 11.6269C104.945 11.6365 104.796 11.6172 104.286 11.3659C103.646 11.0663 103.247 10.6797 102.959 10.0902C102.736 9.64561 102.504 8.64048 102.606 8.54383C102.634 8.50517 104.091 8.40853 105.826 8.33121L108.981 8.17657V7.44205C108.981 5.17085 107.793 3.45053 105.965 3.1026C105.288 2.96729 105 2.97695 104.286 3.14125ZM106.104 4.54264C106.773 4.90023 107.264 5.74106 107.329 6.66888L107.357 7.00714L104.945 7.12312C103.618 7.18111 102.523 7.21977 102.504 7.20044C102.421 7.11345 102.801 5.8957 103.024 5.51877C103.692 4.39767 105.028 3.97242 106.104 4.54264Z" fill="white"/>
<path d="M112.136 3.44053C112.136 3.59517 112.052 5.70208 111.95 8.11826C111.848 10.5344 111.765 12.5737 111.765 12.6317C111.765 12.7283 111.987 12.7573 112.59 12.7573H113.407L113.463 11.5686C113.5 10.921 113.574 9.10406 113.63 7.53838C113.695 5.97269 113.75 4.66795 113.769 4.65829C113.778 4.63896 114.66 4.66795 115.727 4.71628C116.785 4.7646 117.675 4.79359 117.694 4.77427C117.712 4.75494 117.75 4.44567 117.777 4.07841L117.814 3.41154L116.673 3.35355C116.042 3.31489 114.762 3.2569 113.834 3.22791L112.136 3.16026V3.44053Z" fill="white"/>
<path d="M120.487 3.76921C120.487 3.82719 120.273 5.97276 120.023 8.52424C119.763 11.0757 119.559 13.1826 119.577 13.1923C119.596 13.2116 119.967 13.26 120.422 13.3083C120.978 13.3663 121.229 13.3663 121.229 13.2889C121.229 13.2406 121.442 11.1434 121.693 8.64988C121.943 6.14672 122.157 4.05915 122.157 3.99149C122.157 3.88518 121.971 3.83686 120.978 3.71122C120.635 3.67256 120.487 3.69189 120.487 3.76921Z" fill="white"/>
<path d="M93.4943 4.20389C92.4644 4.50349 91.6107 5.19935 91.1653 6.08851C90.9705 6.46543 90.9519 6.4461 90.7849 5.55695C90.7292 5.23801 90.6643 4.94807 90.6457 4.91908C90.6086 4.85142 89.3745 5.02539 89.2817 5.12204C89.2446 5.16069 89.3745 6.25281 89.5786 7.54788C89.7828 8.84295 90.2282 11.8197 90.5715 14.1585C90.9055 16.4974 91.1932 18.4207 91.2024 18.4207C91.221 18.4497 92.7706 18.1791 92.7984 18.1404C92.817 18.1307 92.6592 17.0096 92.4644 15.6566C92.2602 14.3035 92.0932 13.1534 92.0932 13.1051C92.0932 13.0664 92.251 13.1727 92.4365 13.337C93.7634 14.5548 96.2038 14.2745 97.4935 12.7572C98.2173 11.9067 98.5884 10.8049 98.5884 9.44216C98.5884 6.4461 96.9925 4.22322 94.7284 4.09758C94.2459 4.06858 93.8284 4.10724 93.4943 4.20389ZM94.7748 5.66326C96.1203 6.07884 96.9832 7.77017 96.8997 9.81909C96.8533 10.8725 96.5656 11.5974 95.9718 12.1193C95.2388 12.7765 94.0232 12.9408 93.1603 12.5155C92.6221 12.2449 92.0375 11.5781 91.8705 11.0368C91.6478 10.3313 91.4159 8.60133 91.4715 8.09877C91.6386 6.66839 92.7242 5.57628 94.0511 5.51829C94.181 5.50862 94.5057 5.57628 94.7748 5.66326Z" fill="white"/>
<path d="M128.503 4.83257C126.759 5.09352 125.506 6.24362 124.885 8.1669C124.662 8.84343 124.625 9.09471 124.634 10.0998C124.634 11.0373 124.671 11.3659 124.829 11.8105C125.72 14.3523 128.587 15.5024 131.027 14.3137C132.113 13.7821 132.92 12.7673 133.338 11.3949C134.247 8.38918 133.078 5.73139 130.508 4.99687C129.84 4.80358 129.088 4.74559 128.503 4.83257ZM130.545 6.45624C131.408 6.95881 131.899 8.01226 131.899 9.37499C131.899 10.6701 131.556 11.6559 130.805 12.4967C130.239 13.1249 129.617 13.4342 128.875 13.4342C126.805 13.4342 125.692 10.9407 126.62 8.36019C127 7.30674 127.77 6.45624 128.596 6.18563C129.107 6.02133 130.016 6.14697 130.545 6.45624Z" fill="white"/>
<path d="M137.718 6.9298C137.616 7.15209 135.12 15.947 135.157 15.9856C135.24 16.0823 136.632 16.4592 136.678 16.4109C136.716 16.3819 136.994 15.4638 137.3 14.3813C137.606 13.3085 137.875 12.4097 137.885 12.3904C137.922 12.3517 141.921 13.5985 141.995 13.6661C142.023 13.6951 141.782 14.6229 141.466 15.715C141.151 16.8168 140.919 17.7446 140.965 17.7833C141.067 17.8896 142.394 18.2955 142.441 18.2375C142.524 18.1505 145.094 9.17202 145.057 9.1237C145.002 9.07537 143.554 8.62113 143.517 8.65012C143.508 8.65979 143.266 9.46196 142.988 10.4381C142.71 11.4142 142.459 12.2261 142.441 12.2454C142.403 12.2937 138.404 11.0663 138.339 10.989C138.311 10.96 138.525 10.1288 138.813 9.13336C139.1 8.13789 139.323 7.31639 139.304 7.30673C139.258 7.26807 137.894 6.86215 137.82 6.86215C137.783 6.86215 137.736 6.89114 137.718 6.9298Z" fill="white"/>
<path d="M77.8776 8.06049C76.0033 8.65003 74.4537 9.16226 74.4259 9.19126C74.3981 9.22025 74.463 9.52952 74.5651 9.87745L74.7507 10.525L75.2146 10.38C75.4744 10.293 76.0868 10.0997 76.5693 9.94511C77.0611 9.79047 77.4694 9.6745 77.4879 9.69382C77.5065 9.70349 78.0168 11.4528 78.6385 13.579C79.2509 15.6956 79.7705 17.4449 79.7798 17.4643C79.8355 17.5223 81.3294 17.0004 81.3294 16.923C81.3294 16.8747 80.8283 15.1157 80.2067 12.9992C79.5942 10.8923 79.1025 9.1526 79.121 9.14294C79.1396 9.12361 79.7056 8.94964 80.383 8.73702C81.0603 8.53406 81.6634 8.3311 81.7284 8.29244C81.849 8.21512 81.5243 7.03603 81.3758 6.99737C81.3201 6.9877 79.752 7.46127 77.8776 8.06049Z" fill="white"/>
<path d="M71.5963 10.206C71.1694 10.38 70.7983 10.5443 70.7797 10.5636C70.7426 10.6119 71.1045 16.7683 71.2066 17.7831C71.253 18.1794 71.2715 18.5176 71.2622 18.537C71.253 18.5466 70.956 18.1987 70.6034 17.7638C69.3508 16.1885 66.0753 12.5545 65.964 12.6028C65.1567 12.9314 64.4422 13.2794 64.4608 13.347C64.4794 13.3857 65.4258 14.4391 66.5857 15.6762C71.4664 20.9338 71.0303 20.4216 71.0303 20.9145C71.0303 21.9679 70.5199 23.3693 69.8333 24.1812C69.6199 24.4228 69.4529 24.6547 69.4529 24.6934C69.4529 24.8094 70.2416 25.7952 70.3436 25.7952C70.557 25.8145 71.4942 24.6354 71.819 23.9492C72.4963 22.4995 72.6262 20.9048 72.5056 15.3186C72.4592 13.1924 72.4128 11.0951 72.3943 10.6602L72.3757 9.87739L71.5963 10.206Z" fill="white"/>
<path d="M148.694 11.5783C148.694 11.8489 148.676 12.1291 148.648 12.1968C148.602 12.3031 148.75 12.3321 149.363 12.3418C151.209 12.3611 152.452 13.2406 152.434 14.5067C152.425 14.9996 152.248 15.6568 152.128 15.6568C152.081 15.6568 151.682 15.5311 151.228 15.3765C148.527 14.4293 146.681 14.8643 145.809 16.6426C145.493 17.2708 145.456 18.2759 145.725 18.9234C145.976 19.5323 146.579 20.1315 147.284 20.4698C147.739 20.6921 147.943 20.7307 148.694 20.7307C149.409 20.7307 149.659 20.6921 150.021 20.5181C150.263 20.4021 150.457 20.3345 150.457 20.3635C150.457 20.3828 150.392 20.6534 150.309 20.9434C150.225 21.2333 150.179 21.4846 150.198 21.4943C150.402 21.6586 151.506 22.0451 151.562 21.9775C151.599 21.9292 151.682 21.6972 151.747 21.4556C151.812 21.214 152.332 19.8416 152.898 18.4112L153.937 15.8017V14.7386C153.937 13.5112 153.816 13.1633 153.185 12.4964C152.406 11.6846 151.209 11.211 149.743 11.1433L148.694 11.0854V11.5783ZM150.689 16.4686C151.784 16.8359 151.747 16.7682 151.395 17.7057C151.023 18.7011 150.754 19.0781 150.198 19.368C149.604 19.6676 149.242 19.7353 148.694 19.6096C147.479 19.339 146.913 18.3146 147.386 17.2514C147.878 16.1497 148.954 15.8887 150.689 16.4686Z" fill="white"/>
<path d="M59.2828 15.9758L56.0166 17.7348L56.295 18.3147C56.4527 18.6336 56.5919 18.9139 56.6197 18.9429C56.6383 18.9622 57.2136 18.6819 57.9002 18.3147C58.5776 17.9378 59.1529 17.6575 59.1807 17.6865C59.2085 17.7155 60.0065 19.3005 60.9623 21.2141C61.918 23.1277 62.7345 24.7321 62.7716 24.7707C62.8366 24.848 64.2563 24.1715 64.2563 24.0652C64.2563 24.0362 63.449 22.3932 62.4562 20.4216L60.6653 16.8166L61.8994 16.1401C62.5861 15.7632 63.1428 15.4346 63.1428 15.4056C63.1428 15.3476 62.5861 14.2072 62.5582 14.2072C62.5489 14.2072 61.0736 14.9997 59.2828 15.9758Z" fill="white"/>
<path d="M158.372 16.8553C156.823 19.8707 156.424 20.5666 155.895 21.1465C155.385 21.7167 154.735 21.968 154.086 21.8423L153.705 21.7747L153.529 22.2676C153.427 22.5382 153.325 22.8281 153.288 22.9248C153.241 23.0504 153.343 23.1277 153.77 23.292C154.216 23.466 154.42 23.495 154.939 23.4467C156.47 23.3017 157.315 22.3836 159.143 18.8753L159.95 17.2999L160.933 17.8508C161.472 18.1504 162.093 18.4984 162.316 18.624L162.706 18.8656L162.223 19.8031C161.963 20.3153 161.128 21.9197 160.367 23.379C159.616 24.8384 158.994 26.0465 158.994 26.0562C158.994 26.1528 160.414 26.8777 160.479 26.81C160.599 26.6747 164.747 18.595 164.747 18.4984C164.747 18.45 163.494 17.7058 161.963 16.8553L159.18 15.2897L158.372 16.8553Z" fill="white"/>
<path d="M52.7229 19.774L51.897 20.3249L51.9527 21.0594C51.9805 21.4653 52.0269 22.7894 52.0548 24.0168C52.1104 26.0174 52.1661 27.0515 52.3424 28.8491L52.3981 29.429L51.7764 28.3756C50.7279 26.5779 48.371 22.8087 48.2968 22.8087C48.2504 22.8087 47.137 23.5239 47.0163 23.6302C46.9792 23.6592 51.8042 31.42 51.9434 31.5649C52.0269 31.6519 52.2496 31.5456 52.8249 31.1493L53.5858 30.6274V29.9799C53.5858 28.8298 53.3074 23.0696 53.2239 22.2771C53.1775 21.8519 53.1497 21.4943 53.159 21.475C53.1775 21.4653 53.493 21.9872 53.8642 22.6347C54.6065 23.9201 57.1953 28.1243 57.2602 28.1243C57.2788 28.1243 57.585 27.931 57.9376 27.6894L58.5964 27.2448L58.0582 26.3943C57.7706 25.9207 56.6571 24.1231 55.5808 22.3834C54.5137 20.6535 53.6136 19.2424 53.5858 19.2327C53.558 19.2327 53.1682 19.4744 52.7229 19.774Z" fill="white"/>
<path d="M165.693 24.6258L163.16 28.5593L163.466 28.8299C164.682 29.922 166.621 31.1011 167.623 31.3717C168.486 31.6037 169.507 31.5264 170.054 31.1881C171.391 30.3763 171.901 28.6656 171.242 27.2739C170.787 26.3364 169.785 25.4086 168.124 24.3938C167.967 24.2972 168.013 24.1812 168.802 22.9441L169.655 21.6104L168.987 21.1465C168.616 20.8952 168.301 20.6826 168.273 20.6826C168.245 20.6922 167.085 22.4609 165.693 24.6258ZM167.976 25.7759C169.201 26.549 170.027 27.7185 169.906 28.4917C169.878 28.6753 169.739 29.0329 169.6 29.2648C168.932 30.3859 167.577 30.3569 165.972 29.1875C165.61 28.9266 165.294 28.6656 165.257 28.6173C165.192 28.4917 167.15 25.4183 167.299 25.4183C167.354 25.4183 167.66 25.5826 167.976 25.7759Z" fill="white"/>
<path d="M41.8384 27.7182L38.9434 30.1054L39.1104 30.347C39.2032 30.4823 39.398 30.724 39.5465 30.8979L39.8063 31.2072L40.9105 30.289C41.5229 29.7865 42.0518 29.4096 42.0796 29.4482C42.1167 29.4869 43.1838 30.8979 44.4457 32.5699C45.7077 34.2419 46.784 35.653 46.8211 35.7013C46.8861 35.7786 47.5727 35.2954 48.1388 34.7831C48.1851 34.7541 47.1273 33.2851 45.8005 31.5261C44.4643 29.7672 43.3787 28.3174 43.3787 28.2885C43.3787 28.2691 43.8797 27.8439 44.4829 27.3413L45.5963 26.4425L45.42 26.2009C45.3272 26.0559 45.1324 25.8143 44.9839 25.6403L44.7241 25.331L41.8384 27.7182Z" fill="white"/>
<path d="M174.267 30.753C172.69 32.7246 171.4 34.3869 171.391 34.4546C171.381 34.5609 172.43 35.566 172.551 35.566C172.578 35.566 173.2 34.8315 173.924 33.923L175.232 32.28L176.902 33.7394L178.563 35.1988L177.274 36.8031C176.559 37.6923 175.993 38.4558 176.002 38.5138C176.021 38.6201 177.181 39.6639 177.218 39.6156C177.236 39.5962 178.545 37.9532 180.131 35.972C181.727 33.9907 183.026 32.3284 183.026 32.28C183.026 32.1834 181.932 31.2169 181.829 31.2169C181.774 31.2169 179.946 33.4398 179.547 33.9907C179.473 34.097 179.092 33.8071 177.83 32.7149C176.939 31.9418 176.197 31.2749 176.179 31.2266C176.151 31.1493 176.605 30.5597 178.081 28.7427L178.489 28.2402L177.858 27.699C177.515 27.3993 177.209 27.1577 177.181 27.1577C177.153 27.1577 175.845 28.7814 174.267 30.753Z" fill="white"/>
<path d="M119.884 30.84C117.675 31.072 115.727 31.5262 113.62 32.2994C112.451 32.7246 112.433 32.8213 113.407 33.6814C114.789 34.8992 114.929 35.2568 114.585 36.6582C113.926 39.3643 112.507 40.5917 110.039 40.5917C108.09 40.5917 105.724 39.5672 104.174 38.0402L103.692 37.5666L102.736 37.8663C100.314 38.6298 97.9668 38.881 92.2788 38.997C86.3403 39.113 83.8443 39.4029 81.4503 40.2438C80.4204 40.611 79.4182 41.1039 78.5646 41.6935C77.9986 42.0801 77.9615 42.1284 77.3398 43.3945C75.9201 46.2842 74.5468 48.3718 72.5333 50.7203L71.9487 51.4065L72.3013 51.5032C74.3798 52.0831 75.7252 52.228 78.9172 52.228C81.7565 52.2184 83.2875 52.1121 87.2032 51.6578C88.3167 51.5225 89.2817 51.4162 89.3467 51.4162C89.4209 51.4162 89.3838 51.2326 89.2075 50.8556C88.66 49.7055 88.6229 48.4201 89.0869 47.386C89.4395 46.6128 90.4601 45.569 91.3045 45.1148C92.6871 44.3803 93.8562 44.1193 95.5079 44.187C96.4729 44.2256 96.8255 44.2836 97.4657 44.5059C98.5977 44.9022 99.5163 45.5787 100.184 46.4775L100.426 46.8061L101.845 46.6901C109.426 46.0813 116.339 44.2643 122.342 41.2972C125.692 39.6446 128.968 37.3734 131.417 35.0248C132.299 34.1743 133.755 32.541 133.755 32.396C133.755 32.2897 131.853 31.7292 130.508 31.4489C128.179 30.956 126.741 30.8207 123.641 30.782C122.036 30.7627 120.347 30.7917 119.884 30.84Z" fill="white"/>
<path d="M36.5588 32.2993C35.7144 32.7729 34.5824 34.0003 34.1648 34.8895C33.339 36.6678 33.5895 38.5911 34.8793 40.2341C36.8186 42.6986 39.9549 42.7662 42.0055 40.3984C42.4787 39.8571 43.1932 38.7167 43.1932 38.5137C43.1932 38.4171 42.3303 37.7889 42.2003 37.7889C42.154 37.7889 42.024 37.9919 41.8941 38.2431C41.6158 38.794 40.8549 39.6638 40.4002 39.9731C39.0826 40.8333 37.5887 40.5433 36.3361 39.1999C35.5288 38.3108 35.2597 37.6826 35.2597 36.6291C35.2597 35.9139 35.2968 35.74 35.5288 35.2857C35.8629 34.6092 36.6701 33.807 37.3382 33.4688C37.6259 33.3335 37.8764 33.1982 37.8949 33.1788C37.997 33.1015 37.3939 31.9901 37.264 31.9901C37.1805 31.9901 36.865 32.135 36.5588 32.2993Z" fill="white"/>
<path d="M182.831 38.4656C181.022 40.2826 179.537 41.7903 179.519 41.8289C179.509 41.8676 179.806 42.2155 180.178 42.6021L180.846 43.298L184.14 42.4861C185.949 42.0319 187.851 41.539 188.362 41.3747C188.872 41.2201 189.299 41.1041 189.317 41.1138C189.327 41.1331 189.02 41.4424 188.621 41.8C187.536 42.7761 183.88 46.4294 183.871 46.5357C183.861 46.5937 184.103 46.8933 184.399 47.1929L184.938 47.7534L188.232 44.4578C190.041 42.6408 191.526 41.1234 191.544 41.0848C191.554 41.0558 191.257 40.7078 190.885 40.3213L190.199 39.6061L187.304 40.3019C184.724 40.9108 182.748 41.452 181.95 41.7516C181.755 41.8289 181.903 41.6453 182.469 41.1041C182.906 40.6885 184.149 39.4611 185.225 38.3786L187.202 36.4167L186.933 36.0591C186.784 35.8658 186.543 35.5855 186.394 35.4406L186.116 35.17L182.831 38.4656Z" fill="white"/>
<path d="M28.904 40.1764L28.403 40.8142L28.8577 41.2298C29.1175 41.4618 29.7299 42.0127 30.2217 42.4476C30.7134 42.8921 31.1217 43.2884 31.1217 43.3271C31.131 43.4334 28.4308 46.6807 28.3288 46.6807C28.2824 46.6807 27.6607 46.1492 26.9462 45.492C26.2224 44.8444 25.61 44.3032 25.5729 44.2839C25.4987 44.2549 24.4131 45.5113 24.4595 45.5693C24.877 45.9945 31.3722 51.7933 31.4186 51.7837C31.5207 51.7354 32.43 50.6142 32.43 50.5369C32.43 50.4983 31.7898 49.8894 31.0196 49.1839C30.2402 48.4783 29.5443 47.8598 29.4793 47.7922C29.368 47.6858 29.7948 47.135 32.1981 44.2839C32.2073 44.2742 32.9218 44.9024 33.7755 45.6852L35.3436 47.106L35.8818 46.4778C36.1787 46.1395 36.4107 45.8302 36.3921 45.7916C36.3643 45.6852 29.5536 39.5288 29.4793 39.5385C29.4422 39.5385 29.1824 39.8284 28.904 40.1764Z" fill="white"/>
<path d="M193.159 44.7092C192.945 45.3954 192.593 46.6035 192.351 47.4057C192.119 48.1982 191.915 48.8554 191.906 48.865C191.897 48.8844 190.635 48.9617 189.104 49.0583C187.573 49.1453 186.302 49.2419 186.283 49.2516C186.218 49.3096 187.313 50.74 187.424 50.74C187.666 50.74 191.257 50.3534 191.461 50.2954C191.637 50.2567 191.665 50.2761 191.618 50.421C191.386 51.0299 190.264 54.4609 190.264 54.5286C190.264 54.6639 191.414 56.1909 191.442 56.0942C191.693 55.2147 193.149 50.508 193.177 50.479C193.214 50.4307 197.483 50.1698 198.179 50.1601C198.373 50.1601 198.522 50.1214 198.503 50.0634C198.494 50.0151 198.271 49.6865 198.012 49.3386L197.548 48.7007L196.49 48.7587C195.488 48.8167 194.3 48.9327 193.641 49.0487L193.354 49.097L194.031 47.0384L194.699 44.9798L194.235 44.3516C193.483 43.3368 193.576 43.3078 193.159 44.7092Z" fill="white"/>
<path d="M18.8082 47.1447C18.4835 47.4636 18.3814 47.7535 18.4556 48.1691C18.5206 48.5267 18.799 48.836 19.198 49.0003C19.7361 49.2032 20.3671 48.778 20.5063 48.1208C20.7104 47.1833 19.4949 46.4778 18.8082 47.1447Z" fill="white"/>
<path d="M21.5733 49.5315C21.3413 49.8697 21.1558 50.1887 21.1558 50.2466C21.1558 50.295 22.7981 51.5997 24.8116 53.1461L28.4675 55.9585L28.9686 55.2626C29.3583 54.7117 29.4418 54.5474 29.349 54.4508C29.0799 54.1899 22.13 48.9033 22.0651 48.9033C22.028 48.9129 21.8053 49.1932 21.5733 49.5315Z" fill="white"/>
<path d="M138.163 50.363C134.962 50.6722 132.475 51.3101 130.536 52.2959C129.469 52.8468 127.511 54.1612 126.332 55.147C125.302 55.9975 122.834 58.5876 122.064 59.6121C120.626 61.5354 119.531 63.5746 119.197 64.976C118.863 66.3387 118.408 70.9005 118.148 75.5782C117.991 78.439 117.991 92.3368 118.158 103.316C118.325 114.43 118.223 119.669 117.694 125.786C117.378 129.478 116.951 132.445 116.311 135.47C115.894 137.432 115.745 137.906 115.56 137.964C115.355 138.032 115.198 138.563 115.198 139.191V139.655H124.235H133.264L133.041 138.718C131.955 134.05 131.185 127.352 130.879 119.746C130.758 116.818 130.758 109.221 130.879 105.877C131.176 97.7297 131.807 90.1236 132.837 82.5368L133.208 79.7824L133.579 79.4248C134.052 78.9705 135.352 78.2747 136.326 77.9557C137.458 77.5885 138.646 77.3662 141.179 77.0279C144.686 76.5737 145.651 76.3707 147.219 75.7812C148.741 75.2013 150.244 74.0898 151.098 72.9204C153.696 69.3348 154.559 61.9026 152.963 56.906C152.165 54.4221 150.94 52.8855 148.927 51.832C147.581 51.1168 145.53 50.5659 143.461 50.363C142.292 50.2373 139.397 50.247 138.163 50.363ZM139.119 59.2062C140.028 59.4478 140.91 59.96 141.476 60.5786L141.995 61.1391L142.06 61.9703C142.144 62.9561 141.995 64.6667 141.745 65.7685C141.03 68.8419 139.072 71.1518 135.509 73.104C134.47 73.6743 131.705 75.0177 131.659 74.979C131.649 74.9597 131.594 74.4474 131.538 73.8386C131.473 73.2297 131.269 71.7027 131.065 70.4559C130.452 66.6094 130.378 64.8794 130.749 63.0431C130.963 61.951 131.13 61.6127 131.668 61.1005C132.818 60.047 134.442 59.3222 136.289 59.0515C137.022 58.9452 138.432 59.0225 139.119 59.2062Z" fill="white"/>
<path d="M62.3081 50.991C58.6337 51.8125 55.0242 55.5431 51.4147 62.2697C49.364 66.0873 45.1978 75.5104 43.4348 80.2848C40.8275 87.3787 39.4542 93.796 39.0088 100.929C38.8696 103.2 38.9438 108.921 39.148 111.048C39.6676 116.498 40.7532 121.698 42.6925 128.038C43.0266 129.14 44.1122 132.455 45.0958 135.403C48.4826 145.56 49.6424 149.996 50.4311 155.65C50.858 158.753 50.9322 160.038 50.9322 164.059C50.9415 168.446 50.8301 170.012 50.227 174.091C50.0414 175.366 50.0229 175.434 49.7723 175.56C49.3177 175.811 48.6125 175.734 47.0536 175.27C45.5504 174.825 44.205 174.622 44.0844 174.815C44.0008 174.96 44.2421 175.888 44.5761 176.748C45.7082 179.609 48.0464 181.339 51.5168 181.88C53.1498 182.141 56.416 181.958 58.2532 181.503C63.1989 180.305 67.662 176.584 71.6241 170.36C75.9574 163.566 79.5019 154.423 82.7959 141.588L83.4269 139.124L82.9537 139.046C82.2206 138.911 78.574 139.046 75.5027 139.317C71.6241 139.655 69.2673 139.771 67.7456 139.694L66.4558 139.626L66.5207 139.955C67.2631 143.56 67.5507 146.942 67.4765 151.233C67.3744 157.496 66.3816 162.454 64.3588 166.861C63.2546 169.249 62.2432 170.756 60.7121 172.283C59.9513 173.037 58.5316 174.158 58.3367 174.158C58.2996 174.158 58.2718 170.428 58.2625 165.866C58.2625 157.892 58.1883 154.201 57.9006 146.614C57.4367 134.62 56.5274 119.968 55.1541 102.398C54.7829 97.546 54.6716 93.9604 54.7922 89.8045C55.284 72.4177 58.2068 62.2214 62.2988 63.6421C65.398 64.7149 67.8755 72.9009 69.4436 87.282C70.2416 94.6079 70.5663 100.262 70.3808 103.944C70.1673 108.457 69.6013 111.434 68.5714 113.435L68.1631 114.237H77.9987C87.324 114.237 87.8344 114.227 87.788 114.063C87.5467 113.29 86.7209 108.844 85.0507 99.3919C82.9073 87.3304 81.5618 81.8601 78.4534 72.6786C75.7347 64.6473 74.1109 60.7524 72.0139 57.2344C69.9168 53.7165 67.5971 51.5322 65.3702 50.991C64.6278 50.8074 63.1247 50.8074 62.3081 50.991Z" fill="white"/>
<path d="M101.187 51.9575C100.008 52.2764 98.9781 53.0012 98.5142 53.8131C98.2915 54.2093 98.2637 54.364 98.2637 55.0888C98.2637 55.804 98.2915 55.9683 98.5142 56.3549C98.9781 57.1861 99.7947 57.7756 100.955 58.1429C101.78 58.4038 103.349 58.3845 104.202 58.1139C105.835 57.5823 107.042 56.2293 106.912 55.0695C106.791 54.074 106.077 52.9433 105.204 52.4117C104.481 51.9671 103.775 51.8028 102.69 51.8125C102.142 51.8125 101.465 51.8801 101.187 51.9575Z" fill="white"/>
<path d="M11.6913 58.0269L11.4222 58.5392L11.7655 58.9548C12.3315 59.6506 12.313 60.3175 11.7098 60.849C11.4686 61.0617 11.3572 61.0907 10.9582 61.0617C10.6984 61.0327 10.4201 60.9843 10.3365 60.9457C10.2159 60.8877 10.1139 60.994 9.89116 61.3999C9.73342 61.6899 9.60352 61.9508 9.60352 61.9798C9.60352 62.0861 10.4943 62.3374 10.8933 62.3374C12.1181 62.3277 13.1573 61.0617 13.1666 59.583C13.1759 58.8291 13.046 58.4908 12.5635 57.9979C12.0439 57.4567 11.9882 57.4567 11.6913 58.0269Z" fill="white"/>
<path d="M15.5235 58.8774C15.2915 59.322 15.0781 59.7279 15.0596 59.7859C15.0225 59.9309 17.8989 65.1691 18.7433 66.4835C19.133 67.0827 19.4299 67.595 19.4207 67.6143C19.4021 67.624 19.0309 67.4113 18.6041 67.1311C17.6113 66.4932 12.9347 63.7581 12.8976 63.8064C12.8883 63.8257 12.7027 64.1447 12.4986 64.5216L12.1274 65.2175L16.0431 67.4887C18.1958 68.7451 20.0052 69.7792 20.0795 69.7985C20.1444 69.8179 20.3857 69.4796 20.664 68.9867L21.128 68.1362L19.6155 65.4107C18.7804 63.9031 17.7783 62.1537 17.3793 61.5159C16.9896 60.878 16.6834 60.3464 16.7019 60.3271C16.7112 60.3078 17.1844 60.5881 17.7319 60.9457C18.632 61.5255 23.1229 64.1737 23.2064 64.1737C23.2992 64.1737 23.9952 62.7916 23.9302 62.724C23.8467 62.6466 16.238 58.2009 16.0524 58.1236C16.006 58.1042 15.7648 58.4425 15.5235 58.8774Z" fill="white"/>
<path d="M202.141 58.9549C199.932 60.279 198.606 60.7719 197.028 60.8589L196.045 60.9169L195.84 60.5593C195.72 60.366 195.599 60.221 195.571 60.2403C195.534 60.2597 194.727 60.7622 193.771 61.3614L192.036 62.4439L192.314 62.9464C192.472 63.2267 192.639 63.4877 192.676 63.536C192.713 63.5747 193.298 63.304 193.966 62.9271C194.634 62.5502 195.21 62.2409 195.247 62.2409C195.312 62.2409 196.694 64.6958 198.086 67.2762L198.439 67.9238L197.186 68.7163L195.943 69.5088L196.221 70.0017C196.369 70.282 196.536 70.5429 196.574 70.5912C196.638 70.6589 198.411 69.7311 199.886 68.8419L200.285 68.6003L200.044 68.1847L199.812 67.7691L200.675 67.2376C201.148 66.9476 202.688 66.0295 204.089 65.1887C205.491 64.3478 206.65 63.652 206.669 63.6423C206.706 63.6036 203.82 58.375 203.681 58.2107C203.607 58.1238 203.236 58.2977 202.141 58.9549ZM204.024 61.4388C204.414 62.1636 204.711 62.7918 204.674 62.8305C204.423 63.0721 199.042 66.2035 198.977 66.1358C198.865 66.0198 196.926 62.5115 196.963 62.4922C196.982 62.4825 197.409 62.4149 197.91 62.3569C199.348 62.1733 200.73 61.6224 202.558 60.5109C202.92 60.2983 203.226 60.1147 203.254 60.1243C203.282 60.1243 203.625 60.7139 204.024 61.4388Z" fill="white"/>
<path d="M109.398 60.6655C108.99 60.6848 106.652 60.8105 104.202 60.9555C100.704 61.1584 98.8854 61.2164 95.6934 61.2164C92.1303 61.2261 91.6385 61.2454 91.6757 61.371C91.8612 62.0089 92.418 64.6184 92.6407 65.9618C93.6521 71.9056 94.0511 78.0137 94.0511 87.6591C94.0511 95.2652 93.9304 98.9088 93.1603 115.059C92.52 128.56 92.4273 131.614 92.2788 143.908C92.0283 165.354 91.954 169.587 91.7221 175.018C91.6107 177.551 91.5829 177.667 90.5529 179.107C89.8941 180.025 89.5044 180.875 89.4951 181.378V181.697H98.542H107.58L107.645 181.349C107.682 181.156 107.682 180.769 107.654 180.479C107.608 179.986 107.496 179.687 106.578 177.58C105.974 176.188 105.789 175.231 105.436 171.694C105.279 170.118 105.279 160.937 105.436 158.405C105.501 157.371 105.715 153.93 105.919 150.77C106.123 147.609 106.327 144.101 106.373 142.99C106.661 136.997 106.847 127.004 106.847 117.668C106.856 105.655 107.051 92.9457 107.311 86.9342C107.802 75.7908 108.786 67.8464 110.373 62.1249C110.577 61.3904 110.744 60.7525 110.744 60.6945C110.744 60.6462 110.605 60.6075 110.447 60.6172C110.28 60.6269 109.807 60.6462 109.398 60.6655Z" fill="white"/>
<path d="M205.064 68.5806C203.607 68.9479 202.206 70.04 201.631 71.2578C200.991 72.6205 201 73.9156 201.677 75.3459C202.735 77.5882 204.953 78.5063 207.328 77.6655C209.249 76.9889 210.529 75.5489 210.789 73.7803C211.04 72.0986 210.13 70.04 208.729 69.1025C207.755 68.455 206.363 68.252 205.064 68.5806ZM208.043 70.4073C208.84 70.8132 209.36 71.625 209.444 72.5722C209.509 73.3743 209.221 74.0992 208.553 74.7951C206.929 76.4864 204.359 76.728 203.153 75.3073C202.215 74.1862 202.364 72.6398 203.524 71.4897C204.823 70.1946 206.734 69.7404 208.043 70.4073Z" fill="white"/>
<path d="M9.94682 69.9824C9.75196 70.4656 9.61278 70.9295 9.64061 70.9972C9.74268 71.2774 13.0181 75.9262 13.8904 77.0376C14.3914 77.6755 14.7811 78.1877 14.7626 78.1877C14.744 78.1877 14.3265 77.9848 13.8254 77.7431C12.5264 77.1149 7.92402 75.0757 7.87762 75.1143C7.80339 75.1917 7.27449 76.5641 7.30233 76.6027C7.358 76.651 15.6533 80.314 15.7183 80.314C15.7461 80.314 15.9317 79.8984 16.1358 79.3958L16.4884 78.4873L16.0338 77.8301C14.113 75.0854 12.5449 72.9011 12.0253 72.2439C11.6913 71.8187 11.3572 71.3934 11.283 71.3064C11.2087 71.2001 11.5892 71.3451 12.2294 71.664C13.612 72.3406 18.1494 74.3508 18.1865 74.3025C18.2793 74.2059 18.7989 72.8431 18.7525 72.8045C18.6968 72.7368 10.4479 69.1029 10.3644 69.1029C10.3273 69.1029 10.1417 69.4991 9.94682 69.9824Z" fill="white"/>
<path d="M6.23569 79.5115C6.16146 79.6468 5.70679 81.2511 5.70679 81.3864C5.70679 81.4541 6.30992 82.5172 7.05223 83.7543C7.79455 84.9817 8.39767 86.0835 8.39767 86.1995C8.39767 86.3251 8.342 86.4024 8.23993 86.4024C8.14714 86.3927 7.28421 86.1415 6.30992 85.8225L4.54693 85.262L4.2964 86.0448C4.1665 86.4797 4.08299 86.8663 4.11082 86.905C4.1665 86.9533 11.9886 89.4855 12.5917 89.6401C12.833 89.7077 12.8423 89.6884 13.0742 88.9152C13.2041 88.49 13.3155 88.1227 13.3155 88.1034C13.3155 88.0937 12.4618 87.8038 11.4133 87.4655C9.98437 87.0016 9.51114 86.818 9.51114 86.702C9.51114 86.3831 9.99365 85.4746 10.3741 85.0687C10.8844 84.5275 11.5247 84.2858 12.9443 84.1215C14.6795 83.9282 14.5496 83.9959 14.7723 83.1841C14.8836 82.7975 15.0043 82.4012 15.0414 82.3046C15.097 82.1499 15.0785 82.1306 14.8836 82.1789C14.763 82.2079 14.0207 82.3046 13.2413 82.3916C11.636 82.5655 10.838 82.7878 10.1978 83.242C9.79879 83.5127 9.26061 84.1312 9.10287 84.4888C9.06576 84.5661 9.02864 84.5758 9.0008 84.5178C8.26777 83.0777 6.27281 79.4535 6.23569 79.5115Z" fill="white"/>
<path d="M208.915 79.6952C207.467 80.0915 206.168 81.1063 205.63 82.266C204.925 83.7834 205.166 85.7743 206.27 87.572C206.493 87.9296 206.706 88.2388 206.753 88.2678C206.799 88.2968 207.068 88.1712 207.365 87.9779C207.885 87.6493 207.894 87.6299 207.755 87.427C206.743 85.9966 206.456 84.7402 206.873 83.5611C207.365 82.208 208.803 81.2802 210.436 81.2802C211.42 81.2802 211.912 81.4929 212.589 82.1887C213.304 82.9329 213.563 83.5804 213.628 84.7789L213.665 85.6294H214.194C214.501 85.6294 214.798 85.5714 214.9 85.494C215.067 85.3684 215.076 85.3104 214.965 84.4309C214.677 82.0147 213.331 80.1881 211.466 79.6856C210.789 79.5019 209.592 79.5116 208.915 79.6952Z" fill="white"/>
<path d="M207.291 89.9012C207.04 90.0075 206.818 90.1041 206.799 90.1138C206.79 90.1331 206.864 90.3941 206.966 90.6937C207.198 91.3315 207.783 91.9887 208.414 92.298C208.952 92.5783 210.167 92.6556 211.244 92.501C211.671 92.4333 212.775 92.211 213.684 92.0081C214.603 91.7955 215.364 91.6312 215.373 91.6505C215.382 91.6601 215.531 92.3657 215.707 93.2162C216.004 94.5982 216.022 94.7722 215.883 94.8302C215.8 94.8688 214.083 95.2748 212.07 95.7387C210.056 96.2026 208.395 96.5892 208.377 96.5988C208.367 96.6085 208.432 96.9854 208.525 97.43C208.646 97.9905 208.738 98.2418 208.831 98.2322C208.905 98.2225 210.91 97.7779 213.304 97.227C216.811 96.4249 217.637 96.2026 217.637 96.0769C217.637 95.9899 217.34 94.5209 216.978 92.8199L216.31 89.7175L215.976 89.7949C211.123 90.916 210.047 91.0899 209.323 90.8483C208.85 90.6937 208.395 90.3264 208.219 89.9688C208.052 89.6499 207.931 89.6402 207.291 89.9012Z" fill="white"/>
<path d="M7.98007 91.6117C7.13569 91.7664 6.40265 92.3753 5.89231 93.3707C5.57683 93.9893 5.1964 95.4003 5.09433 96.3475C5.04793 96.8307 5.00154 96.937 4.88091 96.8887C4.56543 96.792 2.04157 96.2798 2.00445 96.3088C1.9859 96.3281 1.90239 96.7147 1.8096 97.1593L1.65186 97.9711L6.06861 98.9086C8.49969 99.4208 10.5318 99.8364 10.5967 99.8364C10.6524 99.8364 10.8472 99.2082 11.0421 98.3577C11.803 95.1394 11.5061 92.9745 10.1699 92.0853C9.5482 91.6794 8.68526 91.4958 7.98007 91.6117ZM9.32551 93.5737C9.93792 93.8926 10.272 94.6271 10.272 95.6323C10.272 96.2991 10.0585 97.5072 9.89152 97.7875C9.83585 97.8938 9.44613 97.8455 8.02646 97.5459L6.24491 97.1786L6.29131 96.5504C6.39338 95.265 6.93155 94.0763 7.64603 93.5834C8.07286 93.2837 8.76877 93.2837 9.32551 93.5737Z" fill="white"/>
<path d="M137.801 98.9376C139.481 101.576 140.845 104.437 141.782 107.278C144.566 115.744 144.269 125.245 140.863 136.949C139.184 142.719 137.365 147.435 132.624 158.308C131.204 161.575 129.654 165.199 129.181 166.349L128.327 168.446L118.742 168.456H109.167L109.343 168.813C110.15 170.447 112.099 172.496 116.497 176.304C118.306 177.879 120.246 179.609 120.793 180.15L121.795 181.136L122.185 180.981C122.769 180.749 123.809 179.889 124.356 179.184C124.616 178.836 125.098 178.111 125.423 177.56C126.936 174.989 127.826 173.791 128.606 173.288L128.912 173.095L129.682 173.288C131.315 173.684 132.651 173.81 135.287 173.81C138.488 173.81 139.963 173.665 147.674 172.573C151.293 172.061 152.731 171.925 155.051 171.868C157.472 171.81 159.041 171.945 160.618 172.37C161.973 172.728 162.622 173.085 163.448 173.955C164.228 174.767 164.487 175.231 165.452 177.512C166.195 179.271 166.742 180.198 167.549 181.049C168.301 181.851 168.273 181.851 169.721 181.126C171.743 180.121 172.718 179.3 175.975 175.888C178.638 173.095 179.296 172.476 180.456 171.655C181.152 171.162 182.739 170.292 182.924 170.292C182.98 170.292 183.027 170.253 183.027 170.205C183.027 170.089 181.774 169.587 180.985 169.384C179.176 168.92 176.253 168.755 172.773 168.929C166.956 169.21 165.248 169.248 163.791 169.152C162.984 169.103 162.307 169.036 162.288 169.016C162.242 168.968 161.537 161.517 161.221 157.728C160.813 152.799 160.377 147.126 159.597 136.272C158.558 121.882 158.382 119.591 157.927 115.3C157.38 110.033 157.324 109.366 157.324 107.191C157.324 103.296 158.001 101.006 159.727 99.0825C159.885 98.9086 160.015 98.7443 160.015 98.7153C160.015 98.6959 154.976 98.6766 148.825 98.6766H137.634L137.801 98.9376ZM145.438 155.457C145.623 160.212 145.892 164.232 146.236 167.18C146.319 167.837 146.356 168.408 146.329 168.446C146.254 168.582 145.206 168.852 144.176 168.987C142.867 169.171 140.093 169.171 138.942 168.987C137.894 168.823 137.133 168.553 137.17 168.35C137.254 168.011 139.304 162.087 139.759 160.869C140.798 158.134 141.986 155.921 143.239 154.374C143.953 153.476 145.159 152.354 145.261 152.48C145.299 152.519 145.373 153.862 145.438 155.457Z" fill="white"/>
<path d="M220.226 100.02C220.003 100.252 219.957 100.387 219.957 100.755C219.957 101.141 220.003 101.257 220.281 101.547C220.588 101.866 220.643 101.885 221.042 101.837C221.84 101.75 222.23 100.967 221.859 100.223C221.673 99.8557 221.46 99.7398 220.931 99.7398C220.578 99.7398 220.448 99.7881 220.226 100.02Z" fill="white"/>
<path d="M213.582 100.987C211.216 101.344 209.267 101.663 209.239 101.692C209.211 101.721 209.239 102.108 209.304 102.552C209.416 103.268 209.453 103.364 209.61 103.345C210.297 103.268 218.435 102.04 218.481 102.011C218.509 101.982 218.5 101.741 218.462 101.46C218.416 101.18 218.351 100.803 218.323 100.629C218.286 100.388 218.231 100.32 218.073 100.33C217.961 100.339 215.939 100.629 213.582 100.987Z" fill="white"/>
<path d="M1.19725 101.818C0.649799 103.064 0.547731 104.968 0.97456 106.167C1.49418 107.607 2.60765 108.699 3.9902 109.105C6.43055 109.83 8.75028 108.95 9.68745 106.959C10.2071 105.867 10.3926 104.214 10.1328 102.929L10.0215 102.398L9.38125 102.417C9.02865 102.436 8.73172 102.455 8.71316 102.465C8.70389 102.484 8.75028 102.774 8.83379 103.122C9.0936 104.301 8.82451 105.684 8.16571 106.486C7.96157 106.727 7.58114 107.008 7.20998 107.201C6.62541 107.5 6.5419 107.52 5.56762 107.52C4.62117 107.52 4.50054 107.5 3.94381 107.22C3.11799 106.814 2.70044 106.408 2.34784 105.664C2.09731 105.123 2.05091 104.939 2.06019 104.301C2.06019 103.538 2.26433 102.61 2.53342 102.137C2.61693 101.992 2.66332 101.856 2.63548 101.837C2.61693 101.827 2.33856 101.692 2.0138 101.547L1.42923 101.296L1.19725 101.818Z" fill="white"/>
<path d="M208.664 105.626C207.736 105.713 206.957 105.809 206.919 105.848C206.882 105.877 206.882 106.186 206.919 106.524L206.984 107.133L208.441 107.104L209.889 107.066L210.093 110.342C210.195 112.14 210.278 113.618 210.269 113.628C210.26 113.638 209.731 113.696 209.091 113.754C208.46 113.812 207.819 113.879 207.662 113.899L207.383 113.947L207.411 114.633L207.448 115.31L208.571 115.252C209.193 115.223 210.13 115.174 210.659 115.145L211.605 115.087V114.623V114.159L212.004 114.111C212.218 114.082 213.962 113.957 215.874 113.841C217.785 113.725 219.39 113.599 219.427 113.56C219.492 113.502 219.158 107.278 219.093 107.22C219.084 107.211 218.639 107.24 218.101 107.288C215.085 107.529 213.118 107.288 211.587 106.486C211.067 106.225 211.049 106.196 211.049 105.828C211.049 105.374 211.243 105.384 208.664 105.626ZM213.507 108.776C214.138 108.902 214.742 108.931 216.115 108.902L217.906 108.873L217.952 109.211C217.98 109.395 218.026 110.1 218.063 110.777L218.119 112.014H217.859C217.711 112.014 216.245 112.101 214.593 112.217C212.941 112.323 211.568 112.391 211.54 112.362C211.494 112.323 211.253 109.018 211.234 108.274C211.234 108.061 211.234 108.061 211.967 108.341C212.366 108.496 213.062 108.689 213.507 108.776Z" fill="white"/>
<path d="M3.71156 111.821C2.53314 111.995 1.35472 112.623 0.788707 113.367C0.630965 113.57 0.389714 113.995 0.25053 114.305C0.0278367 114.807 0 114.981 0 115.88C0 116.779 0.0278367 116.962 0.25053 117.446C0.566013 118.151 0.890775 118.605 1.29905 118.895C1.47535 119.011 1.62381 119.147 1.62381 119.185C1.62381 119.234 1.29905 119.263 0.890775 119.263H0.16702L0.102068 119.852C0.0742312 120.181 0.0463945 120.529 0.0463945 120.616C0.0463945 120.77 0.454666 120.79 5.68797 120.848C8.78712 120.877 11.71 120.935 12.1832 120.973L13.0369 121.031V120.161V119.292L11.5801 119.234C10.7728 119.195 9.65934 119.166 9.1026 119.166H8.0912L8.49947 118.789C8.73145 118.586 9.03765 118.161 9.18611 117.852C9.44592 117.31 9.46448 117.214 9.46448 116.122C9.46448 115 9.4552 114.933 9.15828 114.305C8.61082 113.155 7.58086 112.333 6.26326 111.975C5.56734 111.792 4.38892 111.724 3.71156 111.821ZM6.17047 113.763C7.38601 114.131 8.11904 115.02 8.19327 116.228C8.2675 117.388 7.7386 118.335 6.75504 118.837C6.25398 119.098 6.18903 119.108 4.89926 119.089C3.83219 119.069 3.47031 119.031 3.0806 118.876C2.43107 118.625 1.91145 118.151 1.57741 117.513C1.35472 117.078 1.30833 116.885 1.30833 116.315C1.30833 115.754 1.35472 115.551 1.57741 115.126C2.31045 113.725 4.21262 113.164 6.17047 113.763Z" fill="white"/>
<path d="M210.464 117.349C210.39 118.316 210.353 118.267 211.828 118.944C213.739 119.814 214.296 120.471 214.296 121.853V122.385L212.793 122.317C211.958 122.278 211.049 122.23 210.761 122.201L210.241 122.143L210.176 122.935C210.139 123.38 210.139 123.757 210.167 123.796C210.195 123.825 211.104 123.902 212.19 123.96C213.275 124.028 214.176 124.086 214.185 124.086C214.203 124.095 214.194 124.327 214.157 124.598C213.981 125.922 213.303 126.598 211.698 127.082C211.318 127.198 210.77 127.381 210.483 127.487L209.963 127.681L209.898 128.328C209.87 128.686 209.842 129.092 209.842 129.237V129.498L210.241 129.324C210.455 129.227 211.151 128.986 211.782 128.792C213.851 128.145 214.463 127.671 214.946 126.347L215.103 125.902L217.043 127.855L218.982 129.797L219.047 129.44C219.084 129.237 219.112 128.783 219.112 128.435L219.121 127.806L217.219 126.134C216.041 125.1 215.317 124.395 215.317 124.288C215.317 124.134 215.391 124.115 216.041 124.163C217.572 124.259 219.26 124.346 219.279 124.337C219.297 124.327 219.335 123.95 219.362 123.496L219.427 122.674L217.952 122.607C215.809 122.51 215.41 122.462 215.41 122.269C215.41 122.172 216.217 121.544 217.479 120.655L219.539 119.195L219.622 118.267C219.669 117.745 219.678 117.301 219.65 117.272C219.622 117.243 218.648 117.997 217.479 118.954L215.363 120.693L215.261 120.239C214.964 118.915 214.324 118.287 212.422 117.436C211.837 117.175 211.197 116.876 210.984 116.76C210.77 116.653 210.575 116.557 210.557 116.557C210.538 116.557 210.492 116.914 210.464 117.349Z" fill="white"/>
<path d="M3.49807 124.191C2.12479 124.568 1.20618 125.293 0.714398 126.395C0.491704 126.878 0.463867 127.062 0.463867 127.961C0.463867 129.14 0.658724 129.826 1.23402 130.618C2.23614 132.001 4.36101 132.687 6.35597 132.271C9.20459 131.672 10.448 129.459 9.79844 126.153C9.60359 125.187 9.16748 124.066 9.00974 124.124C8.95406 124.143 8.68497 124.24 8.42517 124.327C8.15608 124.423 7.93338 124.51 7.93338 124.53C7.93338 124.539 8.03545 124.8 8.16536 125.09C8.48084 125.796 8.71281 127.091 8.64786 127.816C8.55507 129.082 7.83132 130.068 6.70857 130.464C5.91986 130.744 5.81779 130.734 5.76212 130.348C5.73428 130.184 5.60438 128.86 5.47447 127.429C5.34457 125.989 5.21466 124.636 5.18683 124.404L5.14043 123.998L4.65793 124.008C4.38884 124.008 3.86922 124.095 3.49807 124.191ZM4.12903 125.873C4.12903 126.066 4.49091 129.865 4.54658 130.348L4.60226 130.763H4.29605C3.79499 130.763 2.88566 130.396 2.46811 130.019C1.49383 129.149 1.34536 127.622 2.15263 126.695C2.5145 126.279 2.83927 126.066 3.43312 125.873C3.9249 125.709 4.12903 125.709 4.12903 125.873Z" fill="white"/>
<path d="M211.689 131.479C210.279 131.885 209.202 133.074 208.775 134.678C208.599 135.364 208.497 137.394 208.608 138.012L208.692 138.447L209.277 138.428C209.601 138.418 209.88 138.399 209.898 138.379C209.907 138.36 209.889 138.041 209.833 137.684C209.731 136.92 209.852 135.702 210.093 134.997C210.344 134.272 210.845 133.653 211.448 133.334C211.884 133.103 212.134 133.045 212.765 133.006C213.201 132.977 213.554 132.987 213.554 133.025C213.554 133.064 213.322 134.552 213.034 136.331C212.719 138.292 212.552 139.617 212.598 139.665C212.645 139.713 213.025 139.81 213.443 139.868C214.955 140.1 216.486 139.646 217.256 138.727C217.962 137.887 218.24 136.949 218.175 135.596C218.147 134.881 218.091 134.649 217.832 134.098C217.034 132.416 215.094 131.334 212.905 131.353C212.468 131.353 211.921 131.421 211.689 131.479ZM215.363 133.518C216.384 134.03 217.024 134.968 217.015 135.983C217.006 136.698 216.765 137.268 216.282 137.703C215.8 138.147 215.354 138.302 214.538 138.302C213.944 138.302 213.925 138.292 213.972 138.08C213.999 137.964 214.166 136.93 214.343 135.789C214.705 133.47 214.742 133.276 214.816 133.276C214.844 133.276 215.085 133.383 215.363 133.518Z" fill="white"/>
<path d="M7.90565 134.446C7.38604 134.571 7.07055 134.774 6.74579 135.151C6.43959 135.519 6.1705 136.282 6.16122 136.843V137.191L6.00348 136.949C5.91997 136.814 5.67872 136.533 5.47458 136.311C4.52813 135.345 3.04351 135.567 2.41254 136.765C2.18057 137.22 2.14346 137.403 2.10634 138.302C2.0785 139.123 2.11562 139.549 2.31048 140.544C2.57029 141.849 2.97856 143.328 3.0899 143.328C3.29404 143.328 11.8492 141.511 11.8956 141.453C11.9977 141.356 11.5708 138.689 11.311 137.741C10.7264 135.654 9.85422 134.552 8.6758 134.407C8.44383 134.378 8.10051 134.388 7.90565 134.446ZM9.24182 136.408C9.43667 136.543 9.6872 136.881 9.8635 137.229C10.1604 137.799 10.5223 139.22 10.5316 139.81V140.109L9.21398 140.37C8.48095 140.515 7.79431 140.651 7.69224 140.68C7.50666 140.728 7.47883 140.66 7.28397 139.587C6.94065 137.712 7.12623 136.717 7.86854 136.33C8.31393 136.108 8.8521 136.137 9.24182 136.408ZM5.13126 137.587C5.6416 137.935 6.24473 139.481 6.29113 140.554L6.30968 140.95L5.05703 141.211C4.37039 141.356 3.77654 141.453 3.74871 141.433C3.60024 141.346 3.34043 139.819 3.34043 139.056C3.34043 138.36 3.37755 138.176 3.53529 137.944C3.94356 137.365 4.59309 137.22 5.13126 137.587Z" fill="white"/>
<path d="M207.625 141.849C207.569 142.052 207.467 142.429 207.393 142.68C207.29 143.028 207.29 143.154 207.365 143.183C207.43 143.212 208.311 143.463 209.323 143.762C210.343 144.052 211.188 144.313 211.215 144.342C211.262 144.391 210.223 148.373 210.111 148.556C210.056 148.653 209.573 148.546 208.088 148.112C207.012 147.802 206.112 147.57 206.093 147.59C206.038 147.667 205.667 149.165 205.704 149.194C205.75 149.242 214.361 151.736 214.463 151.736C214.602 151.736 214.973 150.17 214.862 150.093C214.806 150.064 214.018 149.822 213.118 149.571C212.208 149.31 211.457 149.088 211.438 149.078C211.42 149.059 212.524 144.768 212.57 144.71C212.579 144.7 213.377 144.922 214.342 145.212C215.567 145.57 216.124 145.686 216.161 145.608C216.263 145.425 216.56 144.11 216.523 144.062C216.495 144.043 214.574 143.473 212.255 142.806C209.935 142.129 207.959 141.559 207.875 141.53C207.754 141.491 207.699 141.569 207.625 141.849Z" fill="white"/>
<path d="M8.25819 146.053C5.91991 146.74 3.9899 147.31 3.97134 147.329C3.91566 147.387 4.38889 148.982 4.46312 148.972C4.76932 148.914 13.1018 146.479 13.1575 146.421C13.2038 146.382 13.1389 145.995 13.0275 145.56C12.8791 144.99 12.7863 144.778 12.6749 144.787C12.5914 144.797 10.6058 145.358 8.25819 146.053Z" fill="white"/>
<path d="M1.23417 147.928C0.324837 148.324 0.501136 149.764 1.4847 149.958C2.08783 150.074 2.73735 149.542 2.73735 148.933C2.73735 148.556 2.44971 148.083 2.13422 147.928C1.76307 147.744 1.67028 147.744 1.23417 147.928Z" fill="white"/>
<path d="M12.9164 149.533L12.3782 149.919L12.6102 150.219C13.8999 151.891 14.4567 154.133 13.9834 155.766C13.6308 156.965 12.7772 157.97 11.5616 158.627C8.47176 160.299 5.56746 159.536 4.26842 156.713C3.86942 155.853 3.66529 155.08 3.60034 154.123C3.53538 153.282 3.5725 153.302 2.60749 153.437L2.18066 153.505V154.027C2.18066 155.07 2.67245 156.858 3.23846 157.854C4.35193 159.845 5.91078 160.947 7.9707 161.217C9.82648 161.459 12.3411 160.628 13.8071 159.265C14.4938 158.646 15.134 157.622 15.4217 156.723C16.0248 154.79 15.5701 152.258 14.2432 150.161C13.5659 149.078 13.5566 149.069 12.9164 149.533Z" fill="white"/>
<path d="M204.247 153.254C203.393 155.167 203.05 156.385 203.041 157.632C203.032 158.753 203.236 159.352 203.848 160C205.027 161.256 206.79 161.237 207.986 159.951C208.506 159.391 209.248 157.941 209.527 156.926C209.62 156.569 209.731 156.279 209.768 156.279C209.833 156.279 211.8 157.071 212.413 157.342C212.598 157.419 212.635 157.371 212.904 156.656C213.081 156.211 213.173 155.844 213.127 155.805C213.081 155.757 211.206 154.974 208.961 154.056C206.715 153.138 204.832 152.374 204.776 152.355C204.72 152.326 204.488 152.732 204.247 153.254ZM207.782 155.438C208.302 155.65 208.543 155.795 208.543 155.902C208.543 155.989 208.469 156.288 208.367 156.578C207.68 158.675 206.548 159.574 205.342 158.994C204.126 158.405 203.95 157.032 204.832 155.042L205.129 154.365L206.066 154.752C206.585 154.964 207.356 155.273 207.782 155.438Z" fill="white"/>
</svg>
