<svg width="21" height="28" viewBox="0 0 21 28" fill="none" xmlns="http://www.w3.org/2000/svg">
<path d="M4.69629 0C2.65932 0 0.981445 1.58083 0.981445 3.5V24.5C0.981445 26.4192 2.65932 28 4.69629 28H17.0791C19.1161 28 20.7939 26.4192 20.7939 24.5V3.5C20.7939 1.58083 19.1161 0 17.0791 0H4.69629ZM4.69629 2.33333H17.0791C17.7663 2.33333 18.3174 2.8525 18.3174 3.5V24.5C18.3174 25.1475 17.7663 25.6667 17.0791 25.6667H4.69629C4.00904 25.6667 3.45801 25.1475 3.45801 24.5V3.5C3.45801 2.8525 4.00904 2.33333 4.69629 2.33333ZM10.8877 22.1667C10.2066 22.1667 9.64941 22.6917 9.64941 23.3333C9.64941 23.975 10.2066 24.5 10.8877 24.5C11.5688 24.5 12.126 23.975 12.126 23.3333C12.126 22.6917 11.5688 22.1667 10.8877 22.1667Z" fill="white"/>
</svg>
