<svg width="204" height="207" viewBox="0 0 204 207" fill="none" xmlns="http://www.w3.org/2000/svg">
<ellipse cx="98.3535" cy="61.2656" rx="57.2549" ry="55.5698" fill="#FFF500"/>
<g filter="url(#filter0_d_413_361)">
<path d="M0 62.5224V124.753H96H192V62.5224V0.291824H96H0V62.5224ZM96.7294 17.6479L97.4824 19.9087L99.9765 19.9772L102.471 20.0457L100.541 21.3703C99.4588 22.1011 98.5882 22.8318 98.5882 22.9917C98.5882 23.1516 98.8471 24.0422 99.1765 24.9785C99.5059 25.9148 99.7412 26.7826 99.7177 26.9425C99.6706 27.1023 98.8941 26.6913 97.8824 25.9833C96.9176 25.2982 96.0471 24.7273 95.9294 24.7273C95.8118 24.7273 94.9177 25.2982 93.9529 25.9833C92.9647 26.6913 92.1177 27.2165 92.0706 27.148C92.0235 27.1023 92.3059 26.0975 92.7059 24.9328C93.3176 23.0374 93.3647 22.7633 93.0353 22.5578C92.8471 22.4208 91.9294 21.8042 91.0118 21.1419L89.3647 19.9544L91.8824 19.8859L94.4235 19.8174L95.1294 17.5794C95.5294 16.369 95.8824 15.3642 95.9059 15.3642C95.9529 15.3642 96.3059 16.3918 96.7294 17.6479ZM76 23.8138L76.4941 25.4124H79.0118H81.5294L80.9412 25.8692C80.6118 26.1204 79.7882 26.6913 79.1059 27.148C78.4235 27.6048 77.7882 28.13 77.7177 28.3127C77.6471 28.4954 77.8824 29.5002 78.2353 30.5736C78.5882 31.6469 78.8235 32.5604 78.7765 32.606C78.7059 32.6745 77.9294 32.195 77.0353 31.5555C76.1412 30.9161 75.2941 30.3452 75.1294 30.2767C74.9647 30.2082 74.0235 30.7334 73.0118 31.4414C72.0235 32.1265 71.1765 32.6745 71.1059 32.6289C71.0588 32.5832 71.2941 31.6926 71.6235 30.6649C71.9529 29.6601 72.2353 28.6781 72.2353 28.4954C72.2353 28.3127 71.3882 27.5819 70.3529 26.8511L68.4471 25.5266L70.9177 25.4581L73.3882 25.3896L74.1412 23.1059L74.8941 20.7994L75.2 21.5301C75.3882 21.9184 75.7412 22.946 76 23.8138ZM117.788 23.1744L118.494 25.2982L120.965 25.4124L123.412 25.5266L121.482 26.874C120.4 27.6276 119.529 28.2899 119.529 28.3812C119.529 28.4497 119.835 29.4317 120.235 30.5507C120.612 31.6697 120.894 32.606 120.847 32.6745C120.776 32.7202 119.929 32.195 118.965 31.487C117.976 30.7791 117.059 30.2082 116.941 30.2082C116.8 30.2082 115.835 30.8248 114.8 31.5784C113.788 32.3548 112.941 32.9258 112.941 32.8801C112.941 32.8572 113.247 31.8296 113.647 30.6649C114.024 29.4774 114.353 28.4269 114.353 28.3584C114.353 28.2899 113.482 27.6276 112.424 26.874L110.494 25.5266L112.988 25.4581L115.459 25.3896L116.118 23.2429C116.494 22.0554 116.847 21.0734 116.941 21.0734C117.012 21.0734 117.388 22.0325 117.788 23.1744ZM61.2 40.1194C61.2706 40.1879 62.2824 40.2564 63.4824 40.2792C64.6824 40.3021 65.6941 40.3934 65.7647 40.4848C65.8118 40.5761 65.0118 41.2384 63.9765 41.9692C62.9412 42.6771 62.1412 43.3851 62.1882 43.5449C62.7059 44.9151 63.5529 47.6099 63.5059 47.6784C63.4588 47.7012 62.5412 47.1303 61.4824 46.3767L59.5529 45.0065L57.8353 46.2397C56.8941 46.9248 56 47.5414 55.8353 47.6327C55.5294 47.8154 55.5529 47.7012 56.4471 45.075C56.7294 44.2757 56.9412 43.4992 56.9412 43.3622C56.9177 43.2252 56.0941 42.5401 55.0824 41.855C54.0706 41.1699 53.2941 40.5076 53.3412 40.4163C53.4118 40.3021 54.2824 40.2336 55.2706 40.2564C58.1647 40.3477 57.9529 40.4619 58.5647 38.5893C59.6 35.5063 59.4824 35.5292 60.3294 37.9042C60.7294 39.046 61.1059 40.0509 61.2 40.1194ZM133.435 39.1145L133.741 40.2564H136.165C137.506 40.2564 138.588 40.3249 138.588 40.4163C138.588 40.5304 137.882 41.0557 137.059 41.6038C134.659 43.2024 134.706 43.0425 135.529 45.3947C135.906 46.5137 136.188 47.45 136.141 47.5185C136.071 47.5642 135.2 47.039 134.212 46.331C133.2 45.6231 132.259 45.075 132.094 45.1435C131.929 45.212 131.059 45.7829 130.165 46.3995C129.247 47.039 128.471 47.5642 128.4 47.5642C128.329 47.5642 128.565 46.6736 128.965 45.5774C129.341 44.4812 129.647 43.4764 129.647 43.3394C129.647 43.1795 128.776 42.4716 127.718 41.718L125.788 40.3706L128.259 40.3021L130.729 40.2336L131.271 38.5893C132.282 35.552 132.212 35.6433 132.706 36.8994C132.941 37.4931 133.271 38.498 133.435 39.1145ZM57.8353 60.7868C59.0824 60.8096 60.1412 60.8553 60.1647 60.901C60.2118 60.9238 59.3882 61.5632 58.3529 62.2712C57.3176 63.0019 56.4706 63.6185 56.4706 63.6414C56.4706 63.6642 56.8 64.6005 57.1765 65.7195C57.5765 66.8385 57.8824 67.8434 57.8824 67.9576C57.8824 68.1403 56.9882 67.5693 54.6824 65.9022L53.9294 65.3542L52 66.7472C50.9412 67.5237 50.0471 68.1174 50 68.0717C49.9765 68.0261 50.2588 67.1354 50.6118 66.0621C50.9882 64.9888 51.2706 63.9611 51.2941 63.7784C51.2941 63.5957 50.4235 62.8421 49.3647 62.1113C47.8353 61.0608 47.5529 60.8096 48.0235 60.7868C48.3294 60.7868 49.4353 60.7639 50.4706 60.7411L52.3529 60.6954L52.9882 58.7543C53.3647 57.681 53.7176 56.6533 53.7882 56.4706C53.8824 56.2651 54.2588 57.0644 54.7529 58.4346L55.5529 60.7639L57.8353 60.7868ZM138.729 58.5259L139.365 60.5812H141.812C144.024 60.5812 144.8 60.7868 143.882 61.1293C143.247 61.3577 140.494 63.4359 140.471 63.6871C140.471 63.8012 140.776 64.8061 141.153 65.9022C141.553 66.9984 141.765 67.889 141.647 67.889C141.529 67.889 140.659 67.3181 139.718 66.633C138.776 65.9479 137.882 65.4227 137.718 65.4912C137.576 65.5368 136.635 66.1534 135.671 66.8614C134.682 67.5693 133.882 68.0717 133.882 68.0261C133.882 67.9576 134.212 66.9071 134.612 65.6967C135.435 63.2075 135.624 63.6414 133.012 61.9058C132.188 61.3577 131.529 60.8553 131.529 60.7639C131.529 60.6497 132.612 60.5812 133.953 60.5812H136.353L137.035 58.4117C137.412 57.2242 137.788 56.3107 137.882 56.3564C138 56.4249 138.353 57.3841 138.729 58.5259ZM63.6235 81.1344L66.0941 81.2486L64.1176 82.596C63.0118 83.3496 62.1177 83.9662 62.1177 83.9891C62.1177 83.9891 62.4471 84.9711 62.8235 86.1357C63.2235 87.3232 63.5059 88.3052 63.4588 88.3509C63.4118 88.3966 62.5647 87.8713 61.5529 87.1862C60.5647 86.5011 59.6706 85.9302 59.5529 85.9302C59.4588 85.9302 58.5882 86.5011 57.6235 87.1862C56.6588 87.8713 55.8118 88.4423 55.7176 88.4423C55.6235 88.4423 55.6941 88.0084 55.8824 87.4603C56.0706 86.935 56.3765 85.9987 56.5647 85.4049C56.7765 84.8112 56.9412 84.2174 56.9412 84.1261C56.9412 84.0119 56.0706 83.3268 55.0353 82.5732L53.1059 81.2486L55.5529 81.1344L58 81.0203L58.7529 78.8508C59.1765 77.6632 59.5294 76.6356 59.5294 76.5671C59.5529 76.4986 59.9294 77.4805 60.3529 78.7366L61.1294 81.0203L63.6235 81.1344ZM133.106 78.8964L133.788 81.0203L136.306 81.1344L138.8 81.2486L136.824 82.596C135.718 83.3496 134.824 83.9662 134.824 83.9662C134.824 83.9891 135.129 84.9711 135.529 86.1357C135.906 87.3232 136.188 88.3281 136.141 88.3737C136.118 88.4194 135.247 87.8713 134.259 87.1634C133.247 86.4783 132.282 85.953 132.118 86.0215C131.929 86.0901 131.059 86.661 130.165 87.2776C129.247 87.917 128.471 88.4423 128.4 88.4423C128.329 88.4423 128.565 87.5516 128.965 86.4554C129.341 85.3593 129.647 84.3545 129.647 84.1946C129.647 84.0347 128.776 83.304 127.718 82.5732L125.765 81.2486L128.259 81.1801L130.753 81.1116L131.412 78.9649C131.788 77.7774 132.165 76.7954 132.259 76.7954C132.353 76.7954 132.729 77.7546 133.106 78.8964ZM78.9647 95.9784C80.4941 95.9784 81.3882 96.0698 81.2941 96.2068C81.2235 96.321 80.3765 96.9604 79.4118 97.5999C78.4471 98.2393 77.6471 98.9472 77.6471 99.1528C77.6471 99.3583 77.9294 100.317 78.2588 101.299C78.5882 102.281 78.8235 103.149 78.7529 103.195C78.6824 103.263 77.8118 102.738 76.8235 102.03L75.0353 100.729L74.4 101.14C74.0471 101.345 73.1529 101.985 72.4235 102.533C71.6706 103.081 71.0588 103.446 71.0588 103.355C71.0588 103.241 71.3647 102.213 71.7412 101.048C72.5176 98.6504 72.6824 99.0614 70 97.2116L68.3529 96.0926L70.9412 95.9784L73.5059 95.8643L74.2118 93.6034L74.9176 91.3425L75.7177 93.6719L76.5177 95.9784H78.9647ZM117.765 93.9003L118.447 95.9556L120.918 96.0241L123.412 96.0926L122 97.1203C121.2 97.6912 120.306 98.3078 120 98.5133L119.412 98.9016L120.165 101.117C120.682 102.624 120.824 103.286 120.588 103.218C120.424 103.149 119.529 102.555 118.612 101.916C117.553 101.208 116.8 100.82 116.635 100.934C116.471 101.048 115.624 101.619 114.729 102.236C113.859 102.83 113.106 103.309 113.059 103.263C113.012 103.218 113.294 102.259 113.647 101.117C114.094 99.7922 114.259 98.9929 114.118 98.833C114 98.6732 113.153 98.0566 112.235 97.44C111.341 96.8234 110.588 96.2525 110.588 96.1611C110.588 96.0698 111.671 95.9556 112.988 95.9328L115.388 95.8643L116.094 93.7633C116.471 92.6214 116.871 91.7079 116.941 91.7536C117.012 91.7993 117.388 92.7584 117.765 93.9003ZM96.7294 99.1756L97.5059 101.436L100 101.505L102.471 101.573L100.541 102.898C99.4588 103.629 98.5882 104.36 98.5882 104.497C98.5882 104.656 98.8706 105.593 99.1765 106.575C99.5059 107.557 99.7412 108.47 99.7177 108.584C99.6706 108.699 98.8471 108.219 97.9059 107.511C96.9412 106.826 96.0706 106.255 95.9529 106.255C95.8588 106.255 94.9647 106.826 93.9765 107.511C92.9647 108.196 92.1177 108.744 92.0706 108.699C92.0471 108.653 92.3059 107.648 92.7059 106.483C93.0824 105.296 93.3177 104.268 93.2235 104.2C93.1059 104.131 92.2118 103.515 91.2 102.83L89.3647 101.573L91.8353 101.505L94.3059 101.436L94.6588 100.477C94.8706 99.9521 95.2 98.9244 95.4353 98.1936C95.6706 97.4857 95.8824 96.8919 95.9059 96.8919C95.9529 96.8919 96.3059 97.9196 96.7294 99.1756Z" fill="#0B0994"/>
</g>
<g filter="url(#filter1_d_413_361)">
<path d="M125.223 141.308C121.294 142.176 117.905 145.442 116.823 149.438C115.035 155.947 119.741 163.118 126.399 164.008C130.823 164.602 135.858 162.638 137.411 159.669L137.858 158.847L136.094 157.888L134.352 156.906L133.294 158.048C131.552 159.921 128.847 160.697 126.376 160.058C124.047 159.441 122.588 158.139 121.67 155.856C120.847 153.846 120.564 153.983 125.999 153.983H130.847L130.776 152.316L130.705 150.672L126.07 150.603C120.705 150.535 120.917 150.672 122.141 148.297C122.941 146.744 123.858 145.944 125.647 145.282C128.399 144.277 132.211 145.259 133.482 147.36C133.717 147.726 134.023 148.045 134.141 148.045C134.447 148.045 137.411 146.013 137.411 145.807C137.388 145.351 135.67 143.455 134.705 142.839C132.141 141.194 128.423 140.6 125.223 141.308Z" fill="white"/>
</g>
<g filter="url(#filter2_d_413_361)">
<path d="M177.176 141.378C175.035 142.085 173.858 142.793 172.329 144.255C168.541 147.932 167.67 153.002 170.023 157.797C171.953 161.748 175.694 164.032 180.188 164.032C185.694 164.032 190.094 160.515 191.411 155.057C191.882 153.139 191.858 151.883 191.294 149.782C190.353 146.219 188 143.41 184.776 141.948C183.153 141.218 182.682 141.103 180.705 141.035C178.988 140.989 178.164 141.058 177.176 141.378ZM183.411 145.625C184.8 146.424 186.023 147.932 186.611 149.553C187.317 151.471 187.176 154.509 186.329 156.267C185.082 158.825 182.894 160.218 180.188 160.195C177.458 160.172 175.364 158.825 174.141 156.29C173.27 154.44 173.153 151.243 173.905 149.302C174.541 147.635 176.353 145.785 177.882 145.237C179.458 144.666 182.047 144.872 183.411 145.625Z" fill="white"/>
</g>
<g filter="url(#filter3_d_413_361)">
<path d="M0.23584 152.613V164.055L2.42408 163.986L4.58878 163.918L4.65937 154.372L4.70643 144.849H9.8829H15.0594V154.44V164.032H17.2947H19.53V152.613V141.195H9.8829H0.23584V152.613Z" fill="white"/>
</g>
<g filter="url(#filter4_d_413_361)">
<path d="M24.7521 152.545L24.8227 163.918H27.058H29.2933L29.3639 160.081L29.411 156.268H32.658C36.4933 156.268 37.7404 155.971 39.3168 154.738C41.3404 153.139 42.5639 150.33 42.2345 147.932C41.9286 145.489 40.1404 142.954 37.9521 141.88C36.8463 141.332 36.658 141.309 30.7521 141.241L24.7051 141.172L24.7521 152.545ZM36.0698 145.374C38.0227 146.608 38.1874 150.467 36.3521 151.883C35.7639 152.34 35.4345 152.385 32.5639 152.385H29.411V148.594V144.803L32.4227 144.872C34.7992 144.941 35.5757 145.055 36.0698 145.374Z" fill="white"/>
</g>
<g filter="url(#filter5_d_413_361)">
<path d="M49.7408 141.674C48.0703 142.291 46.282 144.072 45.6232 145.739C44.3761 148.959 45.835 153.024 48.7526 154.463C49.6232 154.897 49.6703 154.943 49.3408 155.422C48.1408 157.226 44.1879 163.461 44.0703 163.712C43.9761 163.963 44.3997 164.032 46.3761 164.032H48.8232L50.8232 160.789C51.9291 159.008 53.1055 157.112 53.4585 156.564L54.1173 155.582H56.0467H57.9997L57.9291 159.282C57.882 161.337 57.9291 163.232 57.9997 163.529C58.1173 164.032 58.2114 164.055 60.3055 163.986L62.4703 163.918L62.5408 152.545L62.5879 141.195L56.7761 141.218C51.5526 141.218 50.8232 141.263 49.7408 141.674ZM57.9291 148.069C57.9761 149.85 57.9291 151.38 57.8585 151.517C57.7644 151.654 56.4703 151.7 54.635 151.654C51.5997 151.586 51.5526 151.586 50.8467 150.923C49.0114 149.211 49.435 146.105 51.6232 145.168C52.0938 144.986 53.3408 144.872 55.1055 144.849H57.8585L57.9291 148.069Z" fill="white"/>
</g>
<g filter="url(#filter6_d_413_361)">
<path d="M67.7651 152.613V164.032H70.0004H72.2357L72.2828 156.496L72.3534 148.982L73.3181 150.741C73.8593 151.7 75.2004 154.212 76.3298 156.313L78.3769 160.149H79.6004H80.824L81.9298 158.026C84.1651 153.755 86.6122 149.302 86.824 149.096C86.9887 148.937 87.0593 151.563 87.0593 156.45V164.032H89.2946H91.5298V152.613V141.195H89.0828H86.6357L83.1534 147.589C81.2475 151.106 79.624 153.984 79.5534 153.984C79.4828 153.984 78.7769 152.773 78.0004 151.289C77.224 149.827 75.6946 146.95 74.5887 144.894L72.5887 141.195H70.1887H67.7651V152.613Z" fill="white"/>
</g>
<g filter="url(#filter7_d_413_361)">
<path d="M94.5879 141.309C94.5879 141.4 96.4938 145.168 98.8467 149.69L103.082 157.934L102.658 158.734C101.953 160.035 101.247 160.446 99.882 160.309C99.2467 160.241 98.4938 160.127 98.2114 160.035C97.7644 159.898 97.6938 160.012 97.4585 161.497C97.2938 162.365 97.1761 163.187 97.1761 163.301C97.1761 163.643 99.2938 164.123 100.729 164.123C103.294 164.1 104.823 162.707 106.941 158.437C108.611 155.08 115.058 141.469 115.058 141.309C115.058 141.24 114.023 141.195 112.753 141.195H110.447L107.835 147.178C106.4 150.489 105.129 153.161 105.035 153.139C104.941 153.116 103.623 150.444 102.094 147.201L99.3408 141.309L96.9644 141.24C95.6702 141.218 94.5879 141.24 94.5879 141.309Z" fill="white"/>
</g>
<g filter="url(#filter8_d_413_361)">
<path d="M141.177 152.613V164.032H143.412H145.647V156.45C145.647 152.02 145.741 148.959 145.859 149.074C145.977 149.211 147.365 151.745 148.965 154.714L151.883 160.149H153.083H154.259L155.412 158.026C156.024 156.884 156.941 155.194 157.412 154.326C157.906 153.435 158.753 151.86 159.318 150.809L160.353 148.868L160.424 156.45L160.471 164.032H162.706H164.941V152.613V141.195H162.541H160.118L156.683 147.543C154.777 151.015 153.153 153.846 153.036 153.846C152.941 153.824 151.341 150.992 149.506 147.566L146.165 141.309L143.671 141.241L141.177 141.172V152.613Z" fill="white"/>
</g>
<g filter="url(#filter9_d_413_361)">
<path d="M86.1173 175.565C84.7526 175.953 83.0114 176.935 82.1879 177.78L81.6703 178.305L82.9879 179.63L84.3056 180.954L84.9173 180.406C85.9526 179.47 87.082 179.036 88.8232 178.922C90.2585 178.853 90.5644 178.899 91.2938 179.378C92.682 180.292 92.8467 182.233 91.6467 183.306C90.8467 184.014 89.5291 184.357 87.5526 184.357H85.882V185.955V187.554H87.7173C90.0703 187.554 91.5761 188.034 92.3761 189.038C93.1997 190.112 93.3173 191.139 92.7526 192.418C92.0703 193.926 90.8703 194.474 88.6114 194.359C86.7526 194.268 85.5997 193.811 84.4938 192.761C84.0938 192.373 83.7173 192.099 83.6938 192.144C83.6703 192.19 83.0585 192.898 82.3526 193.697L81.082 195.159L81.9997 195.958C82.5173 196.392 83.6232 197.077 84.4703 197.465C85.8114 198.082 86.3056 198.173 88.4703 198.242C91.2232 198.333 92.7291 198.036 94.4703 197.031C98.7056 194.633 98.7056 188.171 94.4703 186.504C93.3173 186.024 93.1761 185.841 93.8585 185.613C95.3644 185.156 96.7056 183.009 96.7056 181.046C96.7056 178.556 95.5997 176.844 93.3409 175.884C91.7644 175.199 88.0703 175.039 86.1173 175.565Z" fill="white"/>
</g>
<g filter="url(#filter10_d_413_361)">
<path d="M108.824 175.541C105.977 176.226 103.012 178.464 101.53 181.045C99.0119 185.407 99.6472 190.956 103.082 194.701C105.318 197.145 108 198.287 111.412 198.287C114.8 198.287 117.341 197.213 119.718 194.77C123.365 191.024 123.93 185.224 121.059 180.588C119.977 178.852 119.294 178.144 117.553 177.025C115.035 175.381 111.788 174.833 108.824 175.541ZM114.141 179.652C115.6 180.314 116.659 181.364 117.435 182.895C119.553 187.051 117.859 192.486 113.953 194.062C113.482 194.267 112.4 194.404 111.435 194.404C107.859 194.404 105.53 192.281 104.682 188.284C103.859 184.447 106.259 180.2 109.765 179.309C110.824 179.035 113.224 179.218 114.141 179.652Z" fill="white"/>
</g>
<g filter="url(#filter11_d_413_361)">
<path d="M39.9528 175.725C39.741 176.25 39.741 197.717 39.9528 198.013C40.0939 198.219 40.7292 198.288 42.2587 198.242L44.3528 198.173L44.4234 194.337L44.4704 190.523H47.8822C50.7057 190.523 51.4822 190.454 52.5175 190.066C56.5175 188.605 58.4469 183.74 56.5881 179.835C55.8587 178.328 54.4234 176.821 53.0116 176.136C51.9057 175.588 51.7175 175.565 45.9763 175.496C41.2939 175.451 40.0234 175.496 39.9528 175.725ZM51.2469 179.721C52.1645 180.361 52.7057 181.548 52.7057 182.941C52.7057 184.403 52.2587 185.499 51.4116 186.138C50.8234 186.595 50.4939 186.641 47.6234 186.641H44.4704V182.85V179.036L47.5292 179.15C50.1175 179.242 50.7057 179.333 51.2469 179.721Z" fill="white"/>
</g>
<g filter="url(#filter12_d_413_361)">
<path d="M67.2233 175.724C67.1763 175.884 66.0939 178.647 64.8233 181.844C62.3998 187.987 58.6351 197.51 58.4233 197.99C58.3292 198.218 58.8704 198.287 60.6351 198.287H62.988L64.0468 195.501L65.1292 192.692L69.3174 192.623L73.5292 192.577L74.6116 195.363L75.6939 198.172L77.9527 198.241C79.2233 198.264 80.2351 198.218 80.2351 198.127C80.2351 198.035 79.9057 197.122 79.5057 196.117C79.1057 195.112 78.588 193.765 78.3527 193.148C78.1174 192.509 77.1057 189.951 76.1174 187.439C75.1292 184.927 73.6704 181.205 72.8704 179.149L71.4351 175.45H69.388C67.9763 175.45 67.3174 175.541 67.2233 175.724ZM71.0351 184.767C71.8116 186.96 72.4704 188.878 72.4704 189.061C72.4704 189.312 71.8586 189.38 69.1998 189.38H65.9527L67.6233 184.927C68.541 182.483 69.3645 180.565 69.4351 180.657C69.5057 180.748 70.2351 182.598 71.0351 184.767Z" fill="white"/>
</g>
<g filter="url(#filter13_d_413_361)">
<path d="M126.588 186.868V198.287H128.823H131.058V190.705C131.058 185.407 131.129 183.192 131.317 183.374C131.435 183.488 132.847 186 134.423 188.946L137.294 194.29L138.494 194.359L139.717 194.427L142.729 188.832L145.764 183.26L145.882 190.705L146 198.173L148.306 198.241L150.588 198.31V186.868V175.45H148.07H145.529L142.117 181.844C140.235 185.361 138.611 188.216 138.517 188.17C138.423 188.147 136.823 185.293 134.964 181.844L131.623 175.564L129.106 175.496L126.588 175.427V186.868Z" fill="white"/>
</g>
<defs>
<filter id="filter0_d_413_361" x="0" y="0.291992" width="204" height="132.461" filterUnits="userSpaceOnUse" color-interpolation-filters="sRGB">
<feFlood flood-opacity="0" result="BackgroundImageFix"/>
<feColorMatrix in="SourceAlpha" type="matrix" values="0 0 0 0 0 0 0 0 0 0 0 0 0 0 0 0 0 0 127 0" result="hardAlpha"/>
<feOffset dx="8" dy="4"/>
<feGaussianBlur stdDeviation="2"/>
<feComposite in2="hardAlpha" operator="out"/>
<feColorMatrix type="matrix" values="0 0 0 0 0 0 0 0 0 0 0 0 0 0 0 0 0 0 0.25 0"/>
<feBlend mode="normal" in2="BackgroundImageFix" result="effect1_dropShadow_413_361"/>
<feBlend mode="normal" in="SourceGraphic" in2="effect1_dropShadow_413_361" result="shape"/>
</filter>
<filter id="filter1_d_413_361" x="116.441" y="141.015" width="33.4175" height="31.0996" filterUnits="userSpaceOnUse" color-interpolation-filters="sRGB">
<feFlood flood-opacity="0" result="BackgroundImageFix"/>
<feColorMatrix in="SourceAlpha" type="matrix" values="0 0 0 0 0 0 0 0 0 0 0 0 0 0 0 0 0 0 127 0" result="hardAlpha"/>
<feOffset dx="8" dy="4"/>
<feGaussianBlur stdDeviation="2"/>
<feComposite in2="hardAlpha" operator="out"/>
<feColorMatrix type="matrix" values="0 0 0 0 0 0 0 0 0 0 0 0 0 0 0 0 0 0 0.25 0"/>
<feBlend mode="normal" in2="BackgroundImageFix" result="effect1_dropShadow_413_361"/>
<feBlend mode="normal" in="SourceGraphic" in2="effect1_dropShadow_413_361" result="shape"/>
</filter>
<filter id="filter2_d_413_361" x="168.72" y="141.022" width="35.0229" height="31.0098" filterUnits="userSpaceOnUse" color-interpolation-filters="sRGB">
<feFlood flood-opacity="0" result="BackgroundImageFix"/>
<feColorMatrix in="SourceAlpha" type="matrix" values="0 0 0 0 0 0 0 0 0 0 0 0 0 0 0 0 0 0 127 0" result="hardAlpha"/>
<feOffset dx="8" dy="4"/>
<feGaussianBlur stdDeviation="2"/>
<feComposite in2="hardAlpha" operator="out"/>
<feColorMatrix type="matrix" values="0 0 0 0 0 0 0 0 0 0 0 0 0 0 0 0 0 0 0.25 0"/>
<feBlend mode="normal" in2="BackgroundImageFix" result="effect1_dropShadow_413_361"/>
<feBlend mode="normal" in="SourceGraphic" in2="effect1_dropShadow_413_361" result="shape"/>
</filter>
<filter id="filter3_d_413_361" x="0.23584" y="141.195" width="31.2939" height="30.8599" filterUnits="userSpaceOnUse" color-interpolation-filters="sRGB">
<feFlood flood-opacity="0" result="BackgroundImageFix"/>
<feColorMatrix in="SourceAlpha" type="matrix" values="0 0 0 0 0 0 0 0 0 0 0 0 0 0 0 0 0 0 127 0" result="hardAlpha"/>
<feOffset dx="8" dy="4"/>
<feGaussianBlur stdDeviation="2"/>
<feComposite in2="hardAlpha" operator="out"/>
<feColorMatrix type="matrix" values="0 0 0 0 0 0 0 0 0 0 0 0 0 0 0 0 0 0 0.25 0"/>
<feBlend mode="normal" in2="BackgroundImageFix" result="effect1_dropShadow_413_361"/>
<feBlend mode="normal" in="SourceGraphic" in2="effect1_dropShadow_413_361" result="shape"/>
</filter>
<filter id="filter4_d_413_361" x="24.7051" y="141.172" width="29.5825" height="30.7456" filterUnits="userSpaceOnUse" color-interpolation-filters="sRGB">
<feFlood flood-opacity="0" result="BackgroundImageFix"/>
<feColorMatrix in="SourceAlpha" type="matrix" values="0 0 0 0 0 0 0 0 0 0 0 0 0 0 0 0 0 0 127 0" result="hardAlpha"/>
<feOffset dx="8" dy="4"/>
<feGaussianBlur stdDeviation="2"/>
<feComposite in2="hardAlpha" operator="out"/>
<feColorMatrix type="matrix" values="0 0 0 0 0 0 0 0 0 0 0 0 0 0 0 0 0 0 0.25 0"/>
<feBlend mode="normal" in2="BackgroundImageFix" result="effect1_dropShadow_413_361"/>
<feBlend mode="normal" in="SourceGraphic" in2="effect1_dropShadow_413_361" result="shape"/>
</filter>
<filter id="filter5_d_413_361" x="44.0581" y="141.195" width="30.5298" height="30.8369" filterUnits="userSpaceOnUse" color-interpolation-filters="sRGB">
<feFlood flood-opacity="0" result="BackgroundImageFix"/>
<feColorMatrix in="SourceAlpha" type="matrix" values="0 0 0 0 0 0 0 0 0 0 0 0 0 0 0 0 0 0 127 0" result="hardAlpha"/>
<feOffset dx="8" dy="4"/>
<feGaussianBlur stdDeviation="2"/>
<feComposite in2="hardAlpha" operator="out"/>
<feColorMatrix type="matrix" values="0 0 0 0 0 0 0 0 0 0 0 0 0 0 0 0 0 0 0.25 0"/>
<feBlend mode="normal" in2="BackgroundImageFix" result="effect1_dropShadow_413_361"/>
<feBlend mode="normal" in="SourceGraphic" in2="effect1_dropShadow_413_361" result="shape"/>
</filter>
<filter id="filter6_d_413_361" x="67.7651" y="141.195" width="35.7646" height="30.8369" filterUnits="userSpaceOnUse" color-interpolation-filters="sRGB">
<feFlood flood-opacity="0" result="BackgroundImageFix"/>
<feColorMatrix in="SourceAlpha" type="matrix" values="0 0 0 0 0 0 0 0 0 0 0 0 0 0 0 0 0 0 127 0" result="hardAlpha"/>
<feOffset dx="8" dy="4"/>
<feGaussianBlur stdDeviation="2"/>
<feComposite in2="hardAlpha" operator="out"/>
<feColorMatrix type="matrix" values="0 0 0 0 0 0 0 0 0 0 0 0 0 0 0 0 0 0 0.25 0"/>
<feBlend mode="normal" in2="BackgroundImageFix" result="effect1_dropShadow_413_361"/>
<feBlend mode="normal" in="SourceGraphic" in2="effect1_dropShadow_413_361" result="shape"/>
</filter>
<filter id="filter7_d_413_361" x="94.5879" y="141.195" width="32.4707" height="30.9282" filterUnits="userSpaceOnUse" color-interpolation-filters="sRGB">
<feFlood flood-opacity="0" result="BackgroundImageFix"/>
<feColorMatrix in="SourceAlpha" type="matrix" values="0 0 0 0 0 0 0 0 0 0 0 0 0 0 0 0 0 0 127 0" result="hardAlpha"/>
<feOffset dx="8" dy="4"/>
<feGaussianBlur stdDeviation="2"/>
<feComposite in2="hardAlpha" operator="out"/>
<feColorMatrix type="matrix" values="0 0 0 0 0 0 0 0 0 0 0 0 0 0 0 0 0 0 0.25 0"/>
<feBlend mode="normal" in2="BackgroundImageFix" result="effect1_dropShadow_413_361"/>
<feBlend mode="normal" in="SourceGraphic" in2="effect1_dropShadow_413_361" result="shape"/>
</filter>
<filter id="filter8_d_413_361" x="141.177" y="141.172" width="35.7646" height="30.8599" filterUnits="userSpaceOnUse" color-interpolation-filters="sRGB">
<feFlood flood-opacity="0" result="BackgroundImageFix"/>
<feColorMatrix in="SourceAlpha" type="matrix" values="0 0 0 0 0 0 0 0 0 0 0 0 0 0 0 0 0 0 127 0" result="hardAlpha"/>
<feOffset dx="8" dy="4"/>
<feGaussianBlur stdDeviation="2"/>
<feComposite in2="hardAlpha" operator="out"/>
<feColorMatrix type="matrix" values="0 0 0 0 0 0 0 0 0 0 0 0 0 0 0 0 0 0 0.25 0"/>
<feBlend mode="normal" in2="BackgroundImageFix" result="effect1_dropShadow_413_361"/>
<feBlend mode="normal" in="SourceGraphic" in2="effect1_dropShadow_413_361" result="shape"/>
</filter>
<filter id="filter9_d_413_361" x="81.082" y="175.253" width="28.5649" height="31.0044" filterUnits="userSpaceOnUse" color-interpolation-filters="sRGB">
<feFlood flood-opacity="0" result="BackgroundImageFix"/>
<feColorMatrix in="SourceAlpha" type="matrix" values="0 0 0 0 0 0 0 0 0 0 0 0 0 0 0 0 0 0 127 0" result="hardAlpha"/>
<feOffset dx="8" dy="4"/>
<feGaussianBlur stdDeviation="2"/>
<feComposite in2="hardAlpha" operator="out"/>
<feColorMatrix type="matrix" values="0 0 0 0 0 0 0 0 0 0 0 0 0 0 0 0 0 0 0.25 0"/>
<feBlend mode="normal" in2="BackgroundImageFix" result="effect1_dropShadow_413_361"/>
<feBlend mode="normal" in="SourceGraphic" in2="effect1_dropShadow_413_361" result="shape"/>
</filter>
<filter id="filter10_d_413_361" x="99.9985" y="175.238" width="34.8862" height="31.0483" filterUnits="userSpaceOnUse" color-interpolation-filters="sRGB">
<feFlood flood-opacity="0" result="BackgroundImageFix"/>
<feColorMatrix in="SourceAlpha" type="matrix" values="0 0 0 0 0 0 0 0 0 0 0 0 0 0 0 0 0 0 127 0" result="hardAlpha"/>
<feOffset dx="8" dy="4"/>
<feGaussianBlur stdDeviation="2"/>
<feComposite in2="hardAlpha" operator="out"/>
<feColorMatrix type="matrix" values="0 0 0 0 0 0 0 0 0 0 0 0 0 0 0 0 0 0 0.25 0"/>
<feBlend mode="normal" in2="BackgroundImageFix" result="effect1_dropShadow_413_361"/>
<feBlend mode="normal" in="SourceGraphic" in2="effect1_dropShadow_413_361" result="shape"/>
</filter>
<filter id="filter11_d_413_361" x="39.7939" y="175.48" width="29.5059" height="30.7749" filterUnits="userSpaceOnUse" color-interpolation-filters="sRGB">
<feFlood flood-opacity="0" result="BackgroundImageFix"/>
<feColorMatrix in="SourceAlpha" type="matrix" values="0 0 0 0 0 0 0 0 0 0 0 0 0 0 0 0 0 0 127 0" result="hardAlpha"/>
<feOffset dx="8" dy="4"/>
<feGaussianBlur stdDeviation="2"/>
<feComposite in2="hardAlpha" operator="out"/>
<feColorMatrix type="matrix" values="0 0 0 0 0 0 0 0 0 0 0 0 0 0 0 0 0 0 0.25 0"/>
<feBlend mode="normal" in2="BackgroundImageFix" result="effect1_dropShadow_413_361"/>
<feBlend mode="normal" in="SourceGraphic" in2="effect1_dropShadow_413_361" result="shape"/>
</filter>
<filter id="filter12_d_413_361" x="58.4131" y="175.45" width="33.8218" height="30.8369" filterUnits="userSpaceOnUse" color-interpolation-filters="sRGB">
<feFlood flood-opacity="0" result="BackgroundImageFix"/>
<feColorMatrix in="SourceAlpha" type="matrix" values="0 0 0 0 0 0 0 0 0 0 0 0 0 0 0 0 0 0 127 0" result="hardAlpha"/>
<feOffset dx="8" dy="4"/>
<feGaussianBlur stdDeviation="2"/>
<feComposite in2="hardAlpha" operator="out"/>
<feColorMatrix type="matrix" values="0 0 0 0 0 0 0 0 0 0 0 0 0 0 0 0 0 0 0.25 0"/>
<feBlend mode="normal" in2="BackgroundImageFix" result="effect1_dropShadow_413_361"/>
<feBlend mode="normal" in="SourceGraphic" in2="effect1_dropShadow_413_361" result="shape"/>
</filter>
<filter id="filter13_d_413_361" x="126.588" y="175.427" width="36" height="30.8828" filterUnits="userSpaceOnUse" color-interpolation-filters="sRGB">
<feFlood flood-opacity="0" result="BackgroundImageFix"/>
<feColorMatrix in="SourceAlpha" type="matrix" values="0 0 0 0 0 0 0 0 0 0 0 0 0 0 0 0 0 0 127 0" result="hardAlpha"/>
<feOffset dx="8" dy="4"/>
<feGaussianBlur stdDeviation="2"/>
<feComposite in2="hardAlpha" operator="out"/>
<feColorMatrix type="matrix" values="0 0 0 0 0 0 0 0 0 0 0 0 0 0 0 0 0 0 0.25 0"/>
<feBlend mode="normal" in2="BackgroundImageFix" result="effect1_dropShadow_413_361"/>
<feBlend mode="normal" in="SourceGraphic" in2="effect1_dropShadow_413_361" result="shape"/>
</filter>
</defs>
</svg>
